<?xml version="1.0" encoding="UTF-8"?>
<svg xmlns="http://www.w3.org/2000/svg" xmlns:xlink="http://www.w3.org/1999/xlink" width="790" height="300" viewBox="80 320 790 300" version="1.1">
<g id="surface1">
<path style=" stroke:none;fill-rule:nonzero;fill:rgb(0%,0%,0%);fill-opacity:1;" d="M 793.46875 379.867188 C 789.472656 389.285156 778.765625 392.066406 771.203125 397.664063 C 770.316406 396.644531 771.511719 395.222656 772.460938 394.527344 C 778.898438 388.144531 785.285156 383.238281 792.796875 379.347656 Z M 793.46875 379.867188 "/>
<path style=" stroke:none;fill-rule:nonzero;fill:rgb(0%,0%,0%);fill-opacity:1;" d="M 723.132813 387.492188 C 723.03125 397.296875 713.796875 404.550781 706.703125 409.925781 C 701.785156 412.191406 697.292969 415.457031 691.75 415.730469 L 691.785156 414.75 C 699.851563 407.941406 709.867188 404.890625 716.167969 395.808594 C 716.488281 393.125 712.964844 394.953125 712.589844 392.488281 C 713.164063 389.074219 714.675781 385.207031 717.953125 383.859375 C 720.261719 383.703125 722.746094 385.269531 723.132813 387.492188 "/>
<path style=" stroke:none;fill-rule:nonzero;fill:rgb(0%,0%,0%);fill-opacity:1;" d="M 863.246094 423.246094 C 878.449219 451.058594 878.449219 492.261719 861.175781 519.085938 C 857.128906 529.726563 848.007813 540.417969 836.894531 541.953125 C 829.464844 543.386719 821.671875 542.109375 817.066406 535.066406 C 807.445313 519.488281 813.269531 497.140625 813.425781 478.992188 C 815.078125 477.589844 815.449219 473.429688 818.644531 474.539063 C 822.300781 475.410156 827.144531 475.347656 830.039063 478.402344 C 829.667969 482.558594 827.71875 485.675781 826.902344 489.324219 C 823.644531 490.425781 819.953125 490.28125 816.273438 490.144531 C 814.636719 497.683594 814.597656 505.78125 815.242188 513.898438 C 815.542969 518.816406 818.167969 522.84375 822.222656 525.695313 C 832.222656 530 843.828125 527.496094 851.25 519.441406 C 867.285156 501.898438 873 475.871094 866.4375 451.828125 C 863.277344 442.875 859.746094 431.453125 851.367188 426.964844 C 848.789063 434.960938 852.433594 443.195313 851.6875 451.753906 C 851.804688 461.808594 851.222656 472.34375 848.605469 481.5625 L 847.914063 481.535156 C 846.367188 472.652344 850.328125 464.699219 848.773438 456.058594 C 846.304688 440.261719 845.242188 424.035156 844.171875 407.804688 C 844.511719 404.628906 844.847656 401.453125 846.546875 398.816406 C 854.40625 405.25 857.324219 414.433594 863.246094 423.246094 "/>
<path style=" stroke:none;fill-rule:nonzero;fill:rgb(0%,0%,0%);fill-opacity:1;" d="M 602.105469 394.164063 C 601.429688 400.515625 595.148438 402.238281 591.121094 405.519531 C 570.710938 416.027344 550.058594 426.769531 528.84375 433.8125 C 528.195313 432.5625 527.78125 431.074219 528.289063 429.867188 C 552.675781 417.546875 577.886719 408.207031 601.421875 393.894531 Z M 602.105469 394.164063 "/>
<path style=" stroke:none;fill-rule:nonzero;fill:rgb(0%,0%,0%);fill-opacity:1;" d="M 320.511719 390.550781 L 319.261719 393.445313 C 308.679688 399.671875 298.5 407.621094 287.25 413.078125 C 286.785156 413.058594 285.867188 413.027344 286.117188 412.546875 C 296.328125 403.617188 307.710938 394.234375 320.085938 389.554688 Z M 320.511719 390.550781 "/>
<path style=" stroke:none;fill-rule:nonzero;fill:rgb(0%,0%,0%);fill-opacity:1;" d="M 360.144531 397.949219 C 367.933594 413.207031 373.242188 433.527344 366.199219 450.925781 C 362.765625 457.167969 359.210938 466.847656 350.910156 467.019531 C 346.367188 464.886719 340.628906 464.175781 335.769531 464.722656 C 333.136719 467.574219 332.042969 472.679688 333.0625 476.640625 C 338.484375 479.792969 343.277344 474.578125 347.90625 474.019531 C 349.363281 478.492188 347.160156 482.578125 346.101563 486.464844 C 337.972656 494.980469 329.441406 502.015625 321.324219 510.289063 C 314.292969 513.707031 306.367188 516.347656 298.152344 513.828125 C 294.082031 511.464844 291.699219 506.957031 291.863281 502.054688 C 287.980469 500.929688 284.445313 503.25 281.378906 505.339844 C 249.578125 532.339844 211.125 551.476563 167.355469 543.679688 C 152.679688 541.402344 138.207031 533.003906 132.027344 518.046875 C 128.867188 509.097656 132.875 499.679688 129.007813 491.191406 C 126.171875 493.296875 123.511719 490.246094 121.550781 493.605469 C 111.625 507.703125 109.851563 526.03125 101.738281 541.179688 C 99.558594 544.28125 96.703125 546.878906 92.796875 546.480469 C 84.847656 542.988281 83.796875 533.136719 83.15625 524.769531 C 82.226563 504.375 90.4375 486.535156 101.320313 471.253906 L 102.015625 471.277344 L 101.652344 475.1875 C 94.417969 491.59375 80.441406 509.457031 89.019531 528.675781 C 90.558594 530.941406 93.046875 532.265625 95.363281 531.855469 C 111.769531 517.03125 108.515625 490.414063 126.070313 475.628906 C 127.960938 474.472656 130.269531 474.3125 132.058594 475.851563 C 138.417969 485.664063 131.449219 500.855469 137.574219 510.652344 C 153.0625 529.890625 178.925781 528.660156 201.09375 527.546875 C 221.726563 524.160156 241.496094 519.027344 258.753906 506.195313 C 271.171875 500.285156 281.015625 488.644531 293.441406 482.496094 C 295.0625 482.308594 296.886719 482.871094 297.289063 484.601563 C 298.285156 489.304688 294.867188 495.058594 299.605469 497.9375 C 302.578125 498.785156 305.390625 497.421875 307.546875 495.050781 C 311.113281 491.75 312.421875 487.140625 314.636719 483.054688 C 316.4375 484.351563 314.730469 486.984375 314.667969 488.941406 C 314.121094 491.378906 311.925781 494.972656 314.160156 497.023438 C 319.707031 496.742188 325.570313 493.777344 327.832031 488.21875 C 327.625 473.738281 329.738281 458.855469 337.703125 448.363281 C 344.378906 441.746094 349.308594 452.730469 356.097656 449.800781 C 359.640625 447.238281 363.679688 443.714844 364.296875 439.074219 C 364.125 430.480469 361.375 423.015625 357.695313 416.011719 C 356.328125 415.464844 355.433594 414.695313 354.546875 413.679688 C 351.941406 415.792969 352.703125 420.480469 350.554688 422.605469 C 349.292969 412.257813 351.058594 400.792969 354.597656 391.605469 C 357.613281 390.984375 359.078125 395.457031 360.144531 397.949219 "/>
<path style=" stroke:none;fill-rule:nonzero;fill:rgb(0%,0%,0%);fill-opacity:1;" d="M 383.480469 403.253906 C 401.277344 429.441406 412.199219 461.015625 405.273438 495.585938 C 403.234375 515.132813 395.941406 533.25 380.09375 544.914063 C 375.871094 547.207031 370.289063 548.710938 365.75 546.578125 C 347.363281 538.023438 349.769531 514.570313 349.898438 496.90625 C 352.964844 508.550781 350.179688 529.789063 367.640625 531.4375 C 377.980469 532.566406 386.71875 526.277344 392.542969 517.667969 C 408.710938 496.207031 404.949219 464.175781 394.191406 441.195313 C 392.210938 438.421875 391.210938 433.96875 387.070313 433.566406 C 386.8125 448.269531 389.101563 462.34375 388.84375 476.808594 C 385.65625 468.835938 386.921875 458.582031 384.667969 450.152344 C 383.816406 434.417969 376.492188 419.175781 382.332031 403.210938 Z M 383.480469 403.253906 "/>
<path style=" stroke:none;fill-rule:nonzero;fill:rgb(0%,0%,0%);fill-opacity:1;" d="M 258.164063 400.441406 C 256.777344 407.503906 248.886719 408.921875 244.367188 413.164063 C 218.265625 428.359375 188.785156 434.347656 163.769531 451.554688 C 165.308594 446.949219 171.199219 443.25 175.230469 439.722656 C 201.585938 423.796875 230.921875 415.347656 256.613281 398.664063 C 257.519531 398.945313 258.195313 399.464844 258.164063 400.441406 "/>
<path style=" stroke:none;fill-rule:nonzero;fill:rgb(0%,0%,0%);fill-opacity:1;" d="M 321.109375 413.878906 C 318.890625 418.210938 318.414063 425.550781 312.179688 425.804688 C 309.484375 423.734375 304.851563 424.300781 303.816406 420.824219 C 304.867188 416.941406 305.953125 412.078125 309.695313 410.5 C 313.835938 410.898438 318.929688 410.363281 321.109375 413.878906 "/>
<path style=" stroke:none;fill-rule:nonzero;fill:rgb(0%,0%,0%);fill-opacity:1;" d="M 502.128906 419.304688 C 502.925781 423.015625 496.296875 428.160156 501.75 430.570313 C 503.277344 433.082031 501.132813 435.210938 500.367188 437.394531 C 499.175781 438.574219 497.042969 440.203125 495.253906 438.664063 C 491.109375 431.640625 497.8125 424.285156 502.128906 419.304688 "/>
<path style=" stroke:none;fill-rule:nonzero;fill:rgb(0%,0%,0%);fill-opacity:1;" d="M 588.765625 434.378906 C 589.324219 438.324219 587.816406 441.941406 585.417969 444.800781 C 581.09375 450.027344 573.757813 448.773438 568.160156 450.519531 C 565.664063 449.441406 563.652344 447.648438 562.8125 445.164063 C 562.46875 441.714844 563.265625 438.558594 565.398438 436.917969 C 567.414063 438.472656 565.679688 442.085938 568.875 443.1875 C 571.855469 443.550781 574.671875 442.183594 575.003906 439.007813 C 575.078125 437.042969 576.289063 435.132813 577.480469 433.945313 C 580.6875 434.558594 578.097656 443.042969 583.964844 440.078125 C 585.894531 437.457031 582.394531 431.925781 587.253906 431.378906 Z M 588.765625 434.378906 "/>
<path style=" stroke:none;fill-rule:nonzero;fill:rgb(0%,0%,0%);fill-opacity:1;" d="M 639.675781 442.449219 C 641.621094 466.8125 630.289063 488.457031 614.28125 505.019531 C 592.261719 529.199219 563.027344 534.714844 533.417969 537.753906 C 505.472656 539.140625 474.960938 534.789063 461.894531 505.101563 C 459.570313 498.878906 460.039063 491.785156 457.710938 485.5625 C 454.242188 485.917969 449.398438 485.980469 448.101563 490.34375 C 441.160156 504.800781 440.804688 522.207031 433.414063 536.394531 C 432.1875 538.558594 429.355469 540.414063 427.054688 540.324219 C 423.164063 539.4375 420.066406 535.644531 418.339844 531.898438 C 413.457031 512.582031 421.910156 494.5 431.183594 479.15625 C 432.921875 482.410156 429.792969 486.214844 428.988281 489.617188 C 424.777344 498.289063 421.703125 507.492188 419.757813 517.230469 C 419.878906 520.671875 422.097656 523.210938 424.578125 524.773438 C 426.601563 526.324219 429.40625 525.207031 430.851563 523.300781 C 440.128906 507.949219 439.421875 487.804688 449.828125 473.238281 C 452.21875 470.632813 454.632813 467.535156 458.304688 467.921875 C 460.371094 468.242188 461.214844 470.488281 461.609375 472.464844 C 461.628906 485.710938 464.867188 499.078125 475.433594 507.089844 C 495.777344 526.015625 529.296875 523.121094 554.789063 519.183594 C 586.953125 515.503906 621.496094 496.214844 634.367188 463.101563 C 635.625 459.953125 634.601563 456.238281 633.546875 453.253906 L 630.625 450.9375 C 628.996094 451.367188 628.917969 453.8125 627.535156 453.761719 C 627.796875 445.925781 629.199219 438.617188 633.757813 433.144531 C 637.65625 433.789063 638.167969 439.199219 639.675781 442.449219 "/>
<path style=" stroke:none;fill-rule:nonzero;fill:rgb(0%,0%,0%);fill-opacity:1;" d="M 464.144531 431.34375 C 462.644531 434.96875 461.597656 438.613281 460.78125 442.261719 C 459.375 442.945313 459.65625 441.480469 459.21875 440.726563 C 452.101563 446.835938 442.992188 450.164063 434.074219 448.105469 C 432.113281 444.847656 435.210938 441.777344 436.019531 438.371094 C 440.816406 432.667969 449.058594 434.449219 454.9375 431 C 457.941406 430.871094 466.746094 422.617188 464.144531 431.34375 "/>
<path style=" stroke:none;fill-rule:nonzero;fill:rgb(0%,0%,0%);fill-opacity:1;" d="M 144.582031 425.800781 C 145.128906 429.992188 140.679688 432.027344 142.851563 436.035156 C 143.988281 436.570313 145.136719 436.617188 146.035156 437.382813 C 146.390625 440.589844 145.804688 444.242188 142.761719 445.597656 C 140.65625 446.5 138.632813 444.949219 137.539063 443.191406 C 136.375 436.769531 141.164063 431.3125 143.65625 425.761719 Z M 144.582031 425.800781 "/>
<path style=" stroke:none;fill-rule:nonzero;fill:rgb(0%,0%,0%);fill-opacity:1;" d="M 118.214844 428.230469 C 119.226563 432.4375 115.871094 436.234375 114.359375 440.101563 C 107.96875 445.011719 100.117188 445.445313 92.871094 448.359375 C 90.9375 444.117188 94.304688 440.070313 95.808594 436.453125 C 102.652344 431.808594 110.753906 430.886719 118.214844 428.230469 "/>
<path style=" stroke:none;fill-rule:nonzero;fill:rgb(0%,0%,0%);fill-opacity:1;" d="M 250.417969 445.777344 C 250.660156 452.160156 246.835938 456.191406 241.921875 458.453125 C 237.851563 456.089844 235.394531 460.414063 232.101563 462.496094 C 229.296875 463.617188 226.371094 461.539063 225.539063 458.8125 C 225.40625 455.859375 223.679688 452.363281 225.625 449.496094 C 226.347656 448.539063 227.921875 449.578125 228.636719 448.867188 C 227.195313 450.777344 228.730469 453.046875 229.351563 455.027344 C 230.238281 456.289063 231.839844 456.59375 233.257813 455.667969 C 237.691406 453.875 233.5625 446.605469 238.636719 446.304688 C 240.417969 448.339844 240.234375 453.730469 244.453125 451.679688 C 248.441406 449.625 241.085938 442.230469 248.011719 442.003906 Z M 250.417969 445.777344 "/>
<path style=" stroke:none;fill-rule:nonzero;fill:rgb(0%,0%,0%);fill-opacity:1;" d="M 728.800781 465.714844 C 729.621094 468.691406 732.144531 469.03125 734.441406 469.367188 C 736.773438 468.472656 738.691406 466.335938 739.234375 463.902344 C 736.042969 462.804688 729.226563 459.847656 728.800781 465.714844 M 809.363281 380.230469 C 818.339844 394.550781 829.535156 411.171875 821.320313 429.253906 L 822.207031 430.269531 C 826.609375 429.703125 831.320313 426.691406 835.847656 429.074219 C 840.007813 435.605469 835.382813 443.039063 833.332031 449.09375 C 827.929688 465.808594 813.074219 475.550781 798.175781 479.886719 L 788.507813 486.144531 C 787.546875 487.582031 789.339844 488.875 790.480469 489.160156 C 794.160156 489.546875 797.640625 488.945313 800.894531 488.085938 C 801.699219 491.550781 799.953125 495.410156 798.921875 498.804688 C 788.773438 505.78125 779.929688 515.007813 771.109375 523.746094 C 765.683594 527.464844 759.996094 531.910156 752.894531 530.660156 C 736.800781 522.441406 740.546875 500.257813 742.03125 483.636719 C 732.578125 483.519531 725.179688 491.089844 716.539063 494.195313 C 713.652344 498.007813 714.839844 503.695313 713.070313 508.289063 C 709.339844 523.359375 699.597656 538.691406 684.054688 541.773438 C 677.78125 543.25 672.804688 540.367188 668.570313 536.03125 C 663.230469 530.1875 661.636719 522.769531 661.449219 514.664063 C 656.375 514.714844 655.703125 521.070313 652.371094 524.128906 C 644.394531 535.113281 631.996094 540.53125 618.011719 538.03125 L 616.664063 537 C 610.015625 536.011719 601.921875 536.679688 595.785156 533.996094 C 606.640625 533.429688 617.695313 533.847656 627.292969 529.550781 C 646.398438 523.414063 656.941406 504.675781 663.101563 486.027344 C 666.238281 475.109375 669.136719 464.425781 674.761719 454.828125 C 676.671875 452.9375 679.742188 450.597656 682.203125 452.90625 C 683.910156 456.894531 682.140625 461.484375 681.996094 465.894531 C 681.28125 466.601563 680.347656 466.8125 679.207031 466.523438 C 673.160156 468.015625 672.226563 475.335938 669.988281 480.15625 C 667.050781 492.066406 658.953125 506.71875 667.082031 518.5625 C 671.71875 524.625 677.847656 527.558594 685.011719 526.847656 C 698.683594 524.914063 709.269531 511.824219 712.03125 498.195313 L 712.070313 496.96875 C 706.851563 494.5625 699.164063 496.96875 696.414063 489.503906 C 695.738281 482.363281 695.589844 473.039063 701.261719 468.835938 C 711.300781 465.046875 713.285156 488.1875 723.625 475.578125 C 723.09375 464.023438 725.570313 452.101563 734.554688 445.328125 C 736.664063 444.425781 739.640625 445.03125 741.667969 446.335938 C 744.820313 448.664063 745.839844 452.625 745.464844 456.78125 C 745.597656 459.730469 743.191406 462.828125 745.179688 465.359375 C 753.164063 461 758.304688 452.121094 760.679688 443.136719 C 761.3125 431.136719 757.367188 418.230469 746.703125 413.167969 L 739.8125 412.414063 C 733.125 419.269531 735.734375 430.902344 732 439.101563 L 731.308594 439.070313 C 730.886719 424.09375 733.015625 408.964844 741.007813 397.492188 C 743.65625 394.160156 748.226563 395.316406 751.402344 396.910156 C 763.09375 405.695313 767.871094 421.332031 765.273438 436.933594 C 762.191406 453.003906 755.917969 468.21875 745.148438 480.074219 C 743.597656 491.789063 741.449219 507.65625 752.96875 514.714844 C 764.113281 519.3125 774.082031 510.617188 781.519531 502.070313 C 782.453125 488.117188 786.21875 472.074219 800.1875 467.945313 C 810.34375 460.722656 826.257813 460.597656 830.453125 445.546875 C 828.222656 443.253906 824.308594 443.109375 821.515625 443.984375 C 813.339844 447.105469 805.582031 451.714844 797.226563 453.113281 C 796.925781 448.441406 798.058594 442.347656 802.28125 440.058594 C 807.71875 436.09375 814.519531 432.675781 818.859375 426.949219 C 818.976563 416.652344 813.496094 408.351563 806.5625 401.957031 C 803.246094 404.527344 805.582031 410.503906 802.734375 413.089844 C 802.160156 402.769531 803.90625 391.792969 804.9375 381.53125 L 806.65625 378.652344 Z M 809.363281 380.230469 "/>
<path style=" stroke:none;fill-rule:nonzero;fill:rgb(0%,0%,0%);fill-opacity:1;" d="M 339.710938 525.710938 C 338.589844 531.554688 336.527344 538.101563 331.359375 540.851563 C 325.523438 543.078125 319.03125 544.304688 312.605469 543.324219 C 311.117188 539.585938 313.324219 535.746094 315.492188 532.886719 C 322.523438 529.476563 330.1875 527.800781 337.648438 525.390625 Z M 339.710938 525.710938 "/>
<path style=" stroke:none;fill-rule:nonzero;fill:rgb(0%,0%,0%);fill-opacity:1;" d="M 581.777344 546.214844 C 581.527344 553.566406 575.5625 559.472656 569.480469 562.183594 C 562.730469 564.136719 554.285156 568.472656 547.742188 564.300781 C 546.492188 560.328125 549.347656 557.492188 550.15625 554.09375 C 555.550781 551.351563 561.984375 552.085938 567.8125 550.101563 C 572.464844 548.808594 576.914063 546.769531 581.777344 546.214844 "/>
<path style=" stroke:none;fill-rule:nonzero;fill:rgb(0%,0%,0%);fill-opacity:1;" d="M 268.082031 537.453125 C 266.707031 544.027344 263.046875 550.019531 257.625 553.492188 C 253.421875 555.054688 248.261719 557.800781 244.429688 555.199219 C 242.792969 555.871094 239.785156 556.003906 238.460938 554.476563 C 239.289063 550.339844 240.160156 544.980469 244.585938 543.679688 C 252.472656 542.257813 260.167969 539.609375 268.082031 537.453125 "/>
</g>
</svg>
