<?xml version="1.0" encoding="UTF-8"?>
<svg xmlns="http://www.w3.org/2000/svg" xmlns:xlink="http://www.w3.org/1999/xlink" width="1000pt" height="1000pt" viewBox="0 0 1000 1000" version="1.1">
<g id="surface1">
<path style=" stroke:none;fill-rule:nonzero;fill:rgb(0%,0%,0%);fill-opacity:1;" d="M 537.46875 250.40625 C 548.316406 280.730469 547.433594 315.699219 562.921875 344.023438 C 578.636719 318.351563 587.710938 300.871094 600.105469 279.175781 C 611.171875 265.675781 626.222656 255.273438 643.265625 252.617188 C 643.265625 252.617188 931.875 239.78125 960.421875 241.550781 C 961.53125 252.230469 940.285156 268.109375 926.78125 268.996094 C 922.136719 279.839844 903.433594 288.195313 893.863281 290.132813 C 889.046875 299.535156 883.515625 302.859375 877.425781 303.519531 L 845.113281 305.292969 C 840.6875 317.910156 822.980469 316.359375 819.65625 327.429688 C 814.128906 330.523438 817.78125 335.835938 810.25 336.054688 C 819.878906 343.800781 829.683594 355.253906 837.476563 366.488281 C 989.75 586.152344 770.085938 687.964844 717.296875 677.671875 C 684.871094 673.574219 671.15625 666.714844 647.027344 653.214844 C 613.167969 667.160156 575.316406 679.773438 537.03125 682.429688 L 535.925781 683.316406 L 574.214844 733.335938 C 574.65625 736.65625 573.546875 739.972656 571.554688 741.746094 C 568.898438 744.398438 565.132813 745.945313 561.371094 744.398438 C 544.554688 724.695313 529.945313 704.121094 514.230469 683.980469 L 508.257813 683.980469 C 491.210938 705.222656 478.597656 724.480469 460.453125 744.398438 C 456.023438 745.289063 450.933594 742.851563 448.71875 738.644531 L 448.71875 732.890625 C 461.335938 715.628906 474.613281 699.472656 486.566406 682.875 C 447.835938 679.109375 411.316406 668.933594 376.125 653.214844 C 340.714844 664.722656 336.289063 668.046875 311.71875 670.703125 C 200.820313 682.691406 43.03125 578.410156 173.5 379.988281 C 173.5 379.988281 200.613281 346.792969 200.394531 346.347656 L 208.695313 334.726563 C 206.257813 324.441406 200.175781 328.96875 197.515625 321.671875 C 188.441406 319.675781 182.246094 312.59375 176.933594 305.734375 C 160.339844 303.964844 133.554688 308.832031 125.804688 288.253906 C 112.53125 288.917969 101.019531 282.28125 95.488281 271.210938 C 85.304688 268.332031 73.574219 265.675781 67.378906 255.71875 C 67.597656 249.078125 62.0625 247.746094 68.042969 242.4375 L 378.78125 253.0625 C 426.8125 259.480469 435 312.59375 459.34375 344.46875 C 465.761719 335.171875 468.417969 324.324219 472.625 314.148438 C 475.273438 301.972656 476.386719 289.136719 469.082031 278.734375 C 465.761719 274.75 460.230469 270.101563 453.585938 271.210938 C 449.160156 272.316406 444.074219 270.101563 440.308594 274.308594 C 437.875 275.414063 438.757813 279.175781 436.105469 278.734375 C 433.226563 274.089844 436.769531 269.441406 437.214844 264.789063 C 440.972656 256.160156 448.054688 246.640625 458.457031 245.753906 L 471.074219 246.863281 C 474.175781 237.125 484.574219 233.582031 492.984375 231.371094 C 509.585938 233.140625 527.511719 235.578125 537.46875 250.40625 "/>
<path style=" stroke:none;fill-rule:nonzero;fill:rgb(100%,100%,100%);fill-opacity:1;" d="M 520.429688 249.523438 C 512.238281 262.800781 496.082031 249.960938 485.460938 258.375 C 482.804688 255.71875 476.386719 254.832031 479.703125 249.523438 C 481.035156 244.648438 486.125 244.429688 489.667969 242.4375 C 500.953125 242.4375 511.578125 244.210938 520.429688 249.523438 "/>
<path style=" stroke:none;fill-rule:nonzero;fill:rgb(100%,100%,100%);fill-opacity:1;" d="M 943.824219 249.960938 C 941.832031 253.5 936.519531 256.820313 932.09375 258.375 L 737.324219 268.109375 C 728.917969 276.964844 726.261719 290.238281 716.523438 296.664063 C 701.695313 309.71875 680.667969 312.375 669.15625 329.195313 C 663.847656 329.195313 666.503906 336.28125 664.953125 339.820313 C 662.078125 344.246094 659.640625 351.546875 652.78125 350.886719 C 648.796875 352.433594 653.664063 354.207031 652.34375 356.640625 C 651.675781 362.171875 649.679688 367.042969 645.917969 371.023438 L 637.953125 374.34375 C 638.617188 380.988281 637.066406 388.070313 633.082031 393.378906 C 631.09375 396.921875 622.460938 396.480469 625.785156 402.898438 C 624.011719 407.765625 621.132813 413.082031 616.707031 415.734375 C 604.535156 412.855469 612.277344 428.792969 601.875 429.015625 C 599.882813 428.570313 599.003906 430.121094 597.007813 429.453125 C 599.882813 413.519531 604.535156 397.582031 604.972656 381.207031 L 586.378906 365.714844 C 614.714844 324.992188 632.859375 262.582031 692.617188 260.582031 L 940.0625 249.960938 Z M 943.824219 249.960938 "/>
<path style=" stroke:none;fill-rule:nonzero;fill:rgb(100%,100%,100%);fill-opacity:1;" d="M 340.933594 261.695313 C 393.832031 273.421875 408.4375 327.203125 436.105469 365.273438 C 432.339844 371.246094 423.929688 375.453125 417.957031 380.542969 C 417.734375 397.582031 421.9375 414.1875 425.921875 430.121094 C 420.828125 429.675781 415.523438 427.023438 413.308594 422.152344 C 412.421875 413.519531 400.695313 417.726563 398.921875 408.207031 C 396.046875 403.5625 398.035156 395.152344 390.289063 394.484375 C 386.308594 388.953125 382.765625 382.09375 384.980469 375.234375 C 379.445313 374.34375 375.019531 369.917969 372.363281 364.609375 C 367.496094 360.179688 376.125 348.453125 364.839844 350.445313 C 358.863281 346.015625 356.871094 338.269531 356.425781 330.746094 C 350.011719 330.304688 349.347656 323.664063 344.695313 320.566406 C 328.097656 307.726563 305.082031 304.851563 294.234375 283.382813 C 291.136719 278.292969 290.035156 271.433594 284.054688 268.550781 L 269.890625 267.445313 L 98.804688 260.582031 C 89.507813 262.132813 81.097656 256.605469 76.898438 251.070313 Z M 340.933594 261.695313 "/>
<path style=" stroke:none;fill-rule:nonzero;fill:rgb(100%,100%,100%);fill-opacity:1;" d="M 535.476563 279.617188 C 537.914063 296.4375 539.460938 313.484375 545.441406 328.53125 C 537.027344 332.738281 525.964844 332.738281 519.988281 340.707031 C 517.546875 346.683594 514.453125 352.210938 511.578125 357.75 C 505.15625 351.328125 505.820313 339.15625 496.082031 335.398438 L 479.703125 330.082031 C 484.574219 315.035156 487.011719 292.457031 477.492188 278.066406 C 481.699219 278.515625 486.789063 283.601563 491.878906 282.941406 C 486.566406 274.527344 476.609375 270.324219 467.976563 266.339844 C 469.300781 266.121094 471.070313 267.003906 471.738281 265.457031 C 469.746094 261.027344 463.996094 261.25 459.34375 260.582031 L 449.382813 262.132813 C 460.671875 250.625 479.488281 260.8125 492.984375 264.351563 C 495.863281 267.003906 498.074219 270.101563 501.835938 268.996094 C 509.140625 262.800781 517.109375 257.707031 525.296875 253.722656 C 534.148438 258.59375 532.160156 270.984375 535.476563 279.617188 "/>
<path style=" stroke:none;fill-rule:nonzero;fill:rgb(100%,100%,100%);fill-opacity:1;" d="M 653.222656 262.132813 C 615.375 282.28125 603.203125 327.203125 578.863281 359.960938 C 576.203125 356.640625 564.914063 354.871094 571.554688 348.230469 C 594.132813 316.800781 605.859375 263.90625 653.222656 262.132813 "/>
<path style=" stroke:none;fill-rule:nonzero;fill:rgb(100%,100%,100%);fill-opacity:1;" d="M 453.148438 353.097656 L 444.074219 360.402344 L 399.363281 288.691406 C 390.070313 278.734375 380.996094 268.777344 368.597656 262.800781 C 418.621094 263.6875 429.910156 320.785156 453.148438 353.097656 "/>
<path style=" stroke:none;fill-rule:nonzero;fill:rgb(100%,100%,100%);fill-opacity:1;" d="M 914.164063 270.101563 C 912.398438 273.421875 909.296875 275.636719 906.199219 277.625 L 739.316406 284.929688 C 738.652344 282.71875 741.089844 280.503906 741.972656 278.066406 L 777.164063 276.078125 L 901.328125 270.101563 Z M 914.164063 270.101563 "/>
<path style=" stroke:none;fill-rule:nonzero;fill:rgb(100%,100%,100%);fill-opacity:1;" d="M 279.402344 278.066406 L 284.054688 285.597656 L 115.851563 278.734375 C 112.75 276.742188 109.214844 274.527344 107.21875 271.210938 C 166.308594 272.757813 222.308594 276.523438 279.402344 278.066406 "/>
<path style=" stroke:none;fill-rule:nonzero;fill:rgb(100%,100%,100%);fill-opacity:1;" d="M 883.402344 288.691406 L 878.53125 293.5625 C 852.417969 295.113281 829.621094 296.886719 803.058594 296.21875 L 801.953125 292.011719 C 830.0625 291.574219 854.851563 288.253906 883.402344 288.691406 "/>
<path style=" stroke:none;fill-rule:nonzero;fill:rgb(100%,100%,100%);fill-opacity:1;" d="M 219.871094 292.457031 C 220.535156 293.785156 218.984375 295.554688 218.765625 297.324219 C 192.867188 297.988281 168.523438 296.21875 142.847656 294.671875 L 137.980469 289.355469 Z M 219.871094 292.457031 "/>
<path style=" stroke:none;fill-rule:nonzero;fill:rgb(100%,100%,100%);fill-opacity:1;" d="M 776.503906 293.5625 C 776.722656 295.554688 776.722656 297.769531 774.507813 298.207031 C 758.574219 296.886719 744.855469 300.871094 729.359375 300.425781 C 729.140625 297.988281 732.902344 294.890625 734.667969 294.671875 C 748.613281 294.226563 762.777344 293.121094 776.503906 293.5625 "/>
<path style=" stroke:none;fill-rule:nonzero;fill:rgb(100%,100%,100%);fill-opacity:1;" d="M 293.792969 300.425781 C 278.519531 301.53125 262.585938 298.65625 246.429688 298.875 L 245.320313 294.007813 L 289.371094 295.550781 Z M 293.792969 300.425781 "/>
<path style=" stroke:none;fill-rule:nonzero;fill:rgb(100%,100%,100%);fill-opacity:1;" d="M 792.4375 297.324219 C 792.660156 299.757813 792.4375 301.972656 789.785156 302.636719 C 787.789063 302.859375 786.460938 301.53125 785.578125 299.980469 C 784.910156 297.769531 786.683594 296 787.789063 295.113281 C 790.226563 294.449219 791.105469 296 792.4375 297.324219 "/>
<path style=" stroke:none;fill-rule:nonzero;fill:rgb(100%,100%,100%);fill-opacity:1;" d="M 236.25 301.53125 C 235.363281 304.402344 232.265625 302.859375 230.488281 302.632813 C 230.050781 300.871094 228.941406 299.757813 229.386719 297.769531 C 231.382813 293.339844 239.347656 296.21875 236.25 301.53125 "/>
<path style=" stroke:none;fill-rule:nonzero;fill:rgb(100%,100%,100%);fill-opacity:1;" d="M 825.855469 310.601563 L 794.652344 311.492188 C 803.503906 303.519531 820.101563 307.289063 830.726563 306.175781 Z M 825.855469 310.601563 "/>
<path style=" stroke:none;fill-rule:nonzero;fill:rgb(100%,100%,100%);fill-opacity:1;" d="M 226.285156 312.152344 L 195.523438 311.046875 L 190.65625 306.839844 L 222.085938 308.394531 Z M 226.285156 312.152344 "/>
<path style=" stroke:none;fill-rule:nonzero;fill:rgb(100%,100%,100%);fill-opacity:1;" d="M 771.851563 308.390625 C 770.96875 310.382813 769.640625 312.820313 766.984375 312.59375 L 710.769531 314.148438 L 717.628906 310.601563 C 736.664063 310.601563 752.820313 308.390625 771.851563 308.390625 "/>
<path style=" stroke:none;fill-rule:nonzero;fill:rgb(100%,100%,100%);fill-opacity:1;" d="M 311.277344 314.8125 L 252.847656 313.261719 L 250.195313 309.496094 L 306.410156 311.492188 Z M 311.277344 314.8125 "/>
<path style=" stroke:none;fill-rule:nonzero;fill:rgb(100%,100%,100%);fill-opacity:1;" d="M 600.105469 550.519531 C 599.664063 550.964844 599.441406 551.847656 598.5625 551.628906 L 598.5625 548.972656 L 714.972656 396.476563 L 780.710938 310.601563 L 781.8125 310.601563 Z M 600.105469 550.519531 "/>
<path style=" stroke:none;fill-rule:nonzero;fill:rgb(100%,100%,100%);fill-opacity:1;" d="M 241.117188 311.046875 C 278.082031 360.847656 314.378906 405.335938 351.117188 454.019531 L 424.375 550.078125 L 424.375 552.292969 L 336.289063 437.425781 L 240.011719 311.046875 Z M 241.117188 311.046875 "/>
<path style=" stroke:none;fill-rule:nonzero;fill:rgb(100%,100%,100%);fill-opacity:1;" d="M 809.921875 321.671875 C 807.488281 326.316406 799.515625 325.210938 793.542969 325.429688 C 792.660156 323.886719 790.667969 323.886719 791.328125 321.671875 Z M 809.921875 321.671875 "/>
<path style=" stroke:none;fill-rule:nonzero;fill:rgb(100%,100%,100%);fill-opacity:1;" d="M 220.316406 322.78125 C 221.417969 324.324219 218.984375 325.65625 217.210938 325.429688 C 211.015625 326.980469 211.902344 322.554688 211.460938 322.113281 Z M 220.316406 322.78125 "/>
<path style=" stroke:none;fill-rule:nonzero;fill:rgb(100%,100%,100%);fill-opacity:1;" d="M 759.019531 325.875 C 734.894531 327.429688 710.992188 327.429688 687.75 328.09375 L 692.617188 324.773438 C 714.527344 324.546875 737.550781 322.78125 760.566406 322.78125 Z M 759.019531 325.875 "/>
<path style=" stroke:none;fill-rule:nonzero;fill:rgb(100%,100%,100%);fill-opacity:1;" d="M 330.972656 325.875 C 333.1875 326.097656 333.1875 327.867188 335.179688 328.53125 C 311.058594 328.75 284.71875 328.75 262.367188 325.875 L 261.257813 323.886719 Z M 330.972656 325.875 "/>
<path style=" stroke:none;fill-rule:nonzero;fill:rgb(100%,100%,100%);fill-opacity:1;" d="M 774.507813 356.195313 L 773.40625 356.195313 C 767.648438 393.160156 732.238281 431.890625 693.058594 441.628906 C 721.617188 402.898438 750.828125 366.378906 779.820313 328.53125 C 779.601563 338.933594 776.28125 346.90625 774.507813 356.195313 "/>
<path style=" stroke:none;fill-rule:nonzero;fill:rgb(100%,100%,100%);fill-opacity:1;" d="M 329.203125 441.628906 C 286.933594 430.566406 252.40625 392.277344 245.984375 349.335938 C 242.886719 343.363281 243.996094 335.835938 242.222656 329.195313 C 270.113281 365.714844 301.539063 404.222656 329.203125 441.628906 "/>
<path style=" stroke:none;fill-rule:nonzero;fill:rgb(100%,100%,100%);fill-opacity:1;" d="M 713.421875 385.414063 L 639.0625 483.242188 L 639.503906 483.679688 C 623.347656 501.382813 609.621094 524.84375 593.246094 542.113281 C 593.464844 538.570313 598.5625 538.347656 599.21875 534.582031 C 600.328125 526.398438 592.582031 523.078125 595.457031 514 L 590.59375 506.035156 C 591.917969 500.726563 589.703125 496.074219 587.933594 491.210938 C 600.550781 491.425781 615.375 492.09375 623.125 481.023438 L 619.359375 472.617188 C 628.878906 472.617188 638.839844 469.292969 645.917969 462.871094 C 645.476563 459.554688 642.597656 456.902344 641.054688 454.019531 C 651.230469 452.476563 660.304688 446.5 667.167969 439.640625 C 666.949219 435.875 663.183594 433.660156 661.191406 430.5625 C 670.929688 427.683594 679.558594 422.371094 686.863281 413.519531 C 687.085938 408.207031 681.558594 407.765625 679.339844 404 C 688.191406 400.464844 697.710938 393.382813 702.796875 384.972656 C 701.917969 380.101563 695.9375 378.550781 692.617188 375.234375 C 701.25 369.480469 707.890625 364.164063 712.757813 353.984375 C 707.226563 347.125 698.152344 344.246094 691.070313 338.714844 L 749.5 336.496094 L 749.5 338.714844 Z M 713.421875 385.414063 "/>
<path style=" stroke:none;fill-rule:nonzero;fill:rgb(100%,100%,100%);fill-opacity:1;" d="M 331.421875 339.15625 L 310.171875 352.433594 C 310.390625 360.628906 319.6875 369.480469 326.105469 373.683594 C 327.65625 373.90625 328.761719 374.566406 329.867188 375.894531 C 326.550781 379.21875 319.6875 380.765625 320.351563 385.859375 C 326.105469 394.710938 333.851563 401.128906 343.589844 404.449219 L 335.625 412.417969 C 340.714844 421.269531 351.339844 427.683594 361.078125 430.566406 C 360.628906 432.777344 356.425781 436.316406 355.765625 440.082031 C 363.289063 447.605469 371.476563 452.695313 381.433594 454.019531 C 381.660156 458.671875 371.476563 463.761719 380.328125 466.640625 C 387.414063 470.179688 395.15625 472.617188 403.570313 473.058594 C 402.6875 476.378906 399.144531 479.476563 400.472656 483.242188 C 409.105469 491.210938 423.929688 492.980469 434.554688 491.210938 C 434.332031 496.074219 430.347656 501.382813 431.902344 507.144531 C 422.828125 512.234375 431.902344 524.84375 423.929688 530.382813 L 423.929688 535.691406 L 285.824219 355.753906 C 280.515625 349.777344 276.75 344.023438 271.878906 337.605469 C 292.464844 337.828125 308.847656 338.714844 331.421875 339.15625 "/>
<path style=" stroke:none;fill-rule:nonzero;fill:rgb(100%,100%,100%);fill-opacity:1;" d="M 555.621094 353.097656 C 544.773438 361.066406 532.160156 366.824219 517.773438 367.929688 C 519.988281 359.960938 525.964844 352.214844 529.0625 344.023438 C 535.699219 342.476563 541.234375 338.714844 548.09375 337.605469 Z M 555.621094 353.097656 "/>
<path style=" stroke:none;fill-rule:nonzero;fill:rgb(100%,100%,100%);fill-opacity:1;" d="M 496.082031 348.671875 L 505.15625 367.929688 C 490.328125 367.707031 478.15625 361.289063 466.867188 353.097656 L 474.398438 338.050781 C 481.699219 341.371094 492.316406 340.261719 496.082031 348.671875 "/>
<path style=" stroke:none;fill-rule:nonzero;fill:rgb(100%,100%,100%);fill-opacity:1;" d="M 700.144531 355.753906 C 697.046875 361.066406 691.292969 364.828125 685.761719 368.375 C 678.234375 366.378906 672.480469 359.960938 666.0625 355.753906 C 670.929688 352.210938 673.585938 345.574219 676.238281 340.707031 Z M 700.144531 355.753906 "/>
<path style=" stroke:none;fill-rule:nonzero;fill:rgb(100%,100%,100%);fill-opacity:1;" d="M 356.425781 356.195313 C 348.902344 360.402344 342.039063 372.574219 332.96875 366.824219 C 328.984375 363.722656 323.453125 360.179688 323.007813 355.753906 L 346.246094 341.371094 C 349.347656 346.015625 352 352.652344 356.425781 356.195313 "/>
<path style=" stroke:none;fill-rule:nonzero;fill:rgb(100%,100%,100%);fill-opacity:1;" d="M 595.457031 384.308594 C 590.8125 447.164063 559.160156 506.257813 510.910156 545.871094 C 463.550781 504.707031 433.226563 448.714844 427.03125 385.859375 C 437.214844 376.5625 448.71875 368.375 460.007813 360.402344 C 483.246094 377.226563 517.992188 382.757813 544.996094 369.917969 C 551.191406 366.378906 556.949219 363.285156 562.921875 359.960938 Z M 595.457031 384.308594 "/>
<path style=" stroke:none;fill-rule:nonzero;fill:rgb(0%,0%,0%);fill-opacity:1;" d="M 593.246094 383.863281 C 587.492188 445.390625 558.9375 501.832031 511.578125 542.113281 C 463.773438 502.269531 435.660156 446.277344 429.6875 384.972656 L 458.898438 363.058594 C 478.597656 376.113281 502.503906 383.425781 527.511719 378.550781 C 540.128906 375.675781 551.855469 370.363281 562.480469 362.617188 C 573.765625 368.375 581.957031 378.105469 593.246094 383.863281 "/>
<path style=" stroke:none;fill-rule:nonzero;fill:rgb(100%,100%,100%);fill-opacity:1;" d="M 689.523438 384.308594 C 689.078125 388.070313 683.984375 390.503906 680.886719 392.941406 C 667.832031 405.113281 660.972656 384.746094 651.230469 380.101563 C 654.773438 375.675781 659.203125 369.917969 660.746094 363.722656 Z M 689.523438 384.308594 "/>
<path style=" stroke:none;fill-rule:nonzero;fill:rgb(100%,100%,100%);fill-opacity:1;" d="M 362.183594 364.164063 C 363.953125 370.144531 366.613281 376.5625 371.699219 380.101563 L 351.558594 397.582031 C 344.253906 396.035156 338.054688 390.722656 332.527344 385.859375 C 341.820313 377.449219 352.664063 371.023438 362.183594 364.164063 "/>
<path style=" stroke:none;fill-rule:nonzero;fill:rgb(100%,100%,100%);fill-opacity:1;" d="M 551.417969 451.8125 C 554.292969 450.261719 551.855469 445.835938 555.621094 444.949219 C 560.484375 444.730469 565.359375 442.730469 569.34375 446.5 C 576.648438 428.570313 583.28125 408.875 584.167969 388.515625 C 576.867188 382.976563 570.890625 377.882813 562.480469 373.242188 C 533.710938 393.160156 488.113281 393.160156 459.34375 373.242188 C 452.039063 378.332031 444.074219 384.082031 438.09375 390.28125 C 441.636719 411.75 446.066406 433 455.136719 452.25 C 461.777344 453.800781 457.355469 445.617188 463.109375 444.949219 C 467.535156 444.5 473.730469 443.179688 477.492188 446.054688 C 479.042969 447.386719 478.820313 449.59375 479.703125 451.367188 Z M 551.417969 451.8125 "/>
<path style=" stroke:none;fill-rule:nonzero;fill:rgb(100%,100%,100%);fill-opacity:1;" d="M 280.957031 429.453125 C 281.398438 431.671875 238.464844 501.828125 238.019531 541.667969 C 233.148438 583.277344 259.707031 619.574219 294.234375 637.285156 C 307.734375 643.917969 344.554688 645.53125 359.378906 649.070313 C 337.910156 653.054688 272.992188 646.132813 271.441406 646.132813 C 241.339844 637.058594 214.117188 613.820313 197.515625 589.476563 C 168.082031 528.054688 191.984375 469.734375 193.757813 466.640625 C 203.269531 436.757813 226.953125 408.652344 244.882813 381.652344 C 253.066406 399.140625 265.683594 415.289063 280.957031 429.453125 "/>
<path style=" stroke:none;fill-rule:nonzero;fill:rgb(100%,100%,100%);fill-opacity:1;" d="M 673.585938 412.417969 C 668.714844 417.503906 662.078125 420.382813 655.4375 422.152344 C 649.679688 416.84375 643.484375 408.429688 638.398438 401.792969 C 642.378906 398.472656 643.484375 392.941406 646.363281 388.515625 C 655.65625 396.921875 665.398438 403.117188 673.585938 412.417969 "/>
<path style=" stroke:none;fill-rule:nonzero;fill:rgb(100%,100%,100%);fill-opacity:1;" d="M 384.535156 401.792969 C 379.890625 409.535156 373.46875 415.734375 368.15625 422.59375 C 361.078125 421.269531 354.878906 417.726563 348.902344 413.519531 C 355.765625 406 366.828125 396.703125 376.125 389.175781 C 377.894531 393.378906 380.996094 398.472656 384.535156 401.792969 "/>
<path style=" stroke:none;fill-rule:nonzero;fill:rgb(100%,100%,100%);fill-opacity:1;" d="M 826.960938 562.914063 C 816.007813 598.878906 789.785156 624.003906 789.785156 624.003906 C 757.46875 652.992188 708.332031 664.945313 669.15625 653.65625 C 714.527344 647.902344 764.546875 627.539063 780.265625 579.730469 C 794.652344 525.070313 766.761719 474.386719 741.53125 429.453125 C 753.484375 417.28125 764.992188 404.449219 773.40625 389.621094 C 824.863281 455.019531 837.921875 526.949219 826.960938 562.914063 "/>
<path style=" stroke:none;fill-rule:nonzero;fill:rgb(100%,100%,100%);fill-opacity:1;" d="M 653.886719 437.425781 C 648.136719 440.742188 641.714844 444.285156 635.296875 444.285156 L 623.125 424.144531 C 626.886719 419.714844 630.871094 415.511719 633.082031 410.421875 C 639.945313 419.496094 648.355469 427.464844 653.886719 437.425781 "/>
<path style=" stroke:none;fill-rule:nonzero;fill:rgb(100%,100%,100%);fill-opacity:1;" d="M 400.027344 424.144531 C 392.503906 430.339844 392.277344 452.917969 377.671875 442.730469 C 374.355469 441.628906 369.039063 439.195313 369.039063 435.875 C 375.902344 427.464844 382.988281 418.832031 389.410156 410.867188 C 392.945313 415.289063 394.71875 421.269531 400.027344 424.144531 "/>
<path style=" stroke:none;fill-rule:nonzero;fill:rgb(100%,100%,100%);fill-opacity:1;" d="M 633.082031 458.671875 C 628.214844 462.433594 621.796875 462.433594 615.597656 462.871094 C 611.171875 455.792969 608.519531 446.9375 604.972656 438.972656 L 615.597656 430.566406 C 622.902344 438.972656 626.664063 449.59375 633.082031 458.671875 "/>
<path style=" stroke:none;fill-rule:nonzero;fill:rgb(100%,100%,100%);fill-opacity:1;" d="M 407.996094 462.871094 C 401.800781 463.539063 395.15625 462.433594 389.847656 459.777344 C 393.613281 449.59375 402.023438 441.183594 406.226563 431.007813 L 417.957031 438.972656 Z M 407.996094 462.871094 "/>
<path style=" stroke:none;fill-rule:nonzero;fill:rgb(100%,100%,100%);fill-opacity:1;" d="M 611.835938 477.929688 C 605.417969 482.132813 595.238281 483.242188 586.824219 481.023438 L 581.074219 469.292969 C 585.945313 461.769531 588.378906 453.140625 591.695313 444.949219 C 593.6875 444.285156 595.019531 442.734375 597.453125 443.398438 Z M 611.835938 477.929688 "/>
<path style=" stroke:none;fill-rule:nonzero;fill:rgb(100%,100%,100%);fill-opacity:1;" d="M 441.414063 469.957031 L 436.105469 481.46875 C 427.695313 482.132813 417.730469 483.460938 411.097656 478.371094 L 425.480469 443.84375 L 430.792969 444.949219 Z M 441.414063 469.957031 "/>
<path style=" stroke:none;fill-rule:nonzero;fill:rgb(100%,100%,100%);fill-opacity:1;" d="M 503.609375 450.703125 C 503.164063 450.925781 502.945313 451.367188 502.503906 451.367188 L 502.503906 448.714844 C 502.945313 449.152344 503.832031 449.816406 503.609375 450.703125 "/>
<path style=" stroke:none;fill-rule:nonzero;fill:rgb(100%,100%,100%);fill-opacity:1;" d="M 529.0625 449.59375 C 528.394531 450.480469 528.617188 452.476563 526.851563 451.808594 L 525.296875 451.808594 L 525.296875 448.714844 C 526.625 448.929688 528.394531 448.042969 529.0625 449.59375 "/>
<path style=" stroke:none;fill-rule:nonzero;fill:rgb(100%,100%,100%);fill-opacity:1;" d="M 416.40625 555.386719 C 409.546875 557.160156 399.144531 553.398438 394.71875 560.699219 L 399.363281 550.078125 C 384.3125 531.042969 362.183594 517.761719 339.386719 514.445313 C 334.078125 514 329.867188 518.875 327.210938 522.414063 L 293.792969 572.871094 C 293.128906 578.851563 294.234375 582.167969 296.890625 586.820313 C 303.09375 593.457031 309.734375 591.464844 317.695313 592.574219 C 321.015625 594.34375 322.34375 597.222656 319.246094 600.09375 C 316.585938 603.636719 311.5 607.179688 311.277344 612.269531 C 326.105469 625.550781 342.484375 635.066406 360.191406 645.246094 L 359.082031 646.132813 C 331.199219 639.9375 305.964844 622.007813 295.785156 595.230469 C 282.28125 544.765625 302.199219 492.09375 334.078125 454.910156 L 337.171875 452.917969 C 364.617188 487.667969 388.742188 519.753906 416.40625 555.386719 "/>
<path style=" stroke:none;fill-rule:nonzero;fill:rgb(100%,100%,100%);fill-opacity:1;" d="M 704.792969 475.710938 C 724.046875 509.132813 735.226563 541.890625 729.914063 583.773438 C 728.308594 587.539063 728.585938 590.578125 726.707031 594.121094 C 716.523438 622.007813 688.414063 641.042969 660.746094 646.132813 C 678.234375 636.398438 694.835938 625.105469 711.207031 612.269531 C 710.550781 605.628906 704.347656 601.644531 700.589844 595.671875 C 706.339844 585.046875 718.515625 597.441406 725.597656 586.820313 C 727.59375 582.613281 730.464844 578.183594 729.359375 573.542969 L 693.730469 519.316406 C 683.546875 507.144531 670.042969 519.097656 659.203125 521.304688 C 646.585938 527.722656 633.75 536.800781 623.566406 548.972656 C 624.449219 553.179688 627.105469 556.71875 628.433594 560.703125 C 623.789063 553.621094 614.050781 556.71875 606.523438 555.835938 C 631.753906 520.640625 659.421875 487 684.648438 452.917969 C 693.5 457.789063 697.933594 468.628906 704.792969 475.710938 "/>
<path style=" stroke:none;fill-rule:nonzero;fill:rgb(0%,0%,0%);fill-opacity:1;" d="M 510.46875 466.195313 C 510.03125 466.640625 508.917969 467.527344 507.8125 467.300781 L 508.257813 465.53125 C 508.699219 466.640625 509.804688 465.976563 510.46875 466.195313 "/>
<path style=" stroke:none;fill-rule:nonzero;fill:rgb(0%,0%,0%);fill-opacity:1;" d="M 465.320313 473.058594 L 463.109375 469.957031 C 464.429688 469.292969 466.867188 468.40625 468.417969 469.292969 Z M 465.320313 473.058594 "/>
<path style=" stroke:none;fill-rule:nonzero;fill:rgb(0%,0%,0%);fill-opacity:1;" d="M 485.460938 469.292969 C 484.128906 471.953125 480.59375 472.390625 479.042969 469.957031 C 480.148438 468.191406 483.691406 468.628906 485.460938 469.292969 "/>
<path style=" stroke:none;fill-rule:nonzero;fill:rgb(0%,0%,0%);fill-opacity:1;" d="M 502.945313 469.292969 C 502.058594 470.179688 500.070313 472.835938 498.292969 471.511719 L 496.523438 468.851563 C 498.742188 469.070313 501.175781 468.40625 502.945313 469.292969 "/>
<path style=" stroke:none;fill-rule:nonzero;fill:rgb(0%,0%,0%);fill-opacity:1;" d="M 519.988281 469.292969 C 519.210938 470.070313 518.21875 472.171875 516.226563 471.511719 L 514.230469 469.292969 C 516.226563 469.734375 518.21875 468.40625 519.988281 469.292969 "/>
<path style=" stroke:none;fill-rule:nonzero;fill:rgb(0%,0%,0%);fill-opacity:1;" d="M 537.46875 469.292969 C 537.03125 471.289063 533.046875 471.953125 532.160156 469.292969 Z M 537.46875 469.292969 "/>
<path style=" stroke:none;fill-rule:nonzero;fill:rgb(0%,0%,0%);fill-opacity:1;" d="M 554.515625 469.292969 C 553.628906 470.84375 550.75 470.84375 549.644531 469.292969 Z M 554.515625 469.292969 "/>
<path style=" stroke:none;fill-rule:nonzero;fill:rgb(100%,100%,100%);fill-opacity:1;" d="M 580.628906 487.882813 L 580.628906 491.210938 C 579.523438 490.765625 577.308594 489.214844 577.308594 487.445313 L 577.972656 484.128906 C 579.304688 484.34375 580.183594 486.558594 580.628906 487.882813 "/>
<path style=" stroke:none;fill-rule:nonzero;fill:rgb(100%,100%,100%);fill-opacity:1;" d="M 445.179688 484.785156 C 446.28125 487.222656 445.402344 490.09375 442.964844 491.644531 C 442.082031 489.875 442.082031 485.230469 445.179688 484.785156 "/>
<path style=" stroke:none;fill-rule:nonzero;fill:rgb(100%,100%,100%);fill-opacity:1;" d="M 571.996094 499.613281 L 571.554688 500.058594 L 571.554688 496.515625 C 572.441406 496.738281 571.777344 498.507813 571.996094 499.613281 "/>
<path style=" stroke:none;fill-rule:nonzero;fill:rgb(100%,100%,100%);fill-opacity:1;" d="M 451.378906 500.726563 C 450.933594 499.613281 449.605469 498.0625 450.933594 496.960938 C 451.152344 497.625 452.925781 499.394531 451.378906 500.726563 "/>
<path style=" stroke:none;fill-rule:nonzero;fill:rgb(100%,100%,100%);fill-opacity:1;" d="M 443.410156 505.371094 L 441.859375 507.144531 C 439.867188 505.371094 441.195313 502.492188 440.753906 500.058594 C 444.292969 498.289063 443.1875 503.375 443.410156 505.371094 "/>
<path style=" stroke:none;fill-rule:nonzero;fill:rgb(100%,100%,100%);fill-opacity:1;" d="M 581.515625 499.613281 C 582.175781 501.605469 582.84375 504.929688 581.074219 506.480469 C 578.199219 505.59375 579.960938 501.832031 579.523438 499.613281 Z M 581.515625 499.613281 "/>
<path style=" stroke:none;fill-rule:nonzero;fill:rgb(100%,100%,100%);fill-opacity:1;" d="M 459.34375 509.796875 L 458.898438 510.242188 L 457.792969 507.582031 C 458.457031 508.246094 460.007813 508.246094 459.34375 509.796875 "/>
<path style=" stroke:none;fill-rule:nonzero;fill:rgb(100%,100%,100%);fill-opacity:1;" d="M 565.132813 507.582031 C 564.46875 508.46875 564.914063 509.578125 564.027344 510.242188 L 564.027344 507.582031 Z M 565.132813 507.582031 "/>
<path style=" stroke:none;fill-rule:nonzero;fill:rgb(100%,100%,100%);fill-opacity:1;" d="M 450.492188 511.789063 L 450.933594 511.789063 L 450.933594 514.003906 L 450.492188 514.003906 Z M 450.492188 511.789063 "/>
<path style=" stroke:none;fill-rule:nonzero;fill:rgb(100%,100%,100%);fill-opacity:1;" d="M 572.660156 514 L 571.996094 511.789063 L 572.660156 511.789063 Z M 572.660156 514 "/>
<path style=" stroke:none;fill-rule:nonzero;fill:rgb(100%,100%,100%);fill-opacity:1;" d="M 586.378906 518.210938 C 584.613281 519.53125 582.621094 518.210938 581.074219 517.101563 L 581.074219 515.996094 C 581.734375 517.101563 582.84375 516.4375 583.726563 516.660156 L 585.945313 514.441406 C 585.71875 515.773438 586.824219 516.660156 586.378906 518.210938 "/>
<path style=" stroke:none;fill-rule:nonzero;fill:rgb(100%,100%,100%);fill-opacity:1;" d="M 441.859375 516.660156 C 440.972656 517.984375 438.757813 519.316406 436.546875 518.648438 L 437.214844 515.109375 C 438.320313 516.4375 440.085938 517.984375 441.859375 516.660156 "/>
<path style=" stroke:none;fill-rule:nonzero;fill:rgb(100%,100%,100%);fill-opacity:1;" d="M 557.613281 515.109375 L 558.277344 515.109375 L 558.277344 517.761719 L 557.613281 517.761719 Z M 557.613281 515.109375 "/>
<path style=" stroke:none;fill-rule:nonzero;fill:rgb(100%,100%,100%);fill-opacity:1;" d="M 558.277344 471.953125 C 547.433594 494.082031 528.617188 515.109375 512.015625 532.59375 C 500.511719 522.414063 489 509.800781 480.59375 498.0625 C 487.894531 501.382813 487.011719 490.542969 494.535156 494.300781 C 495.863281 497.625 499.847656 498.734375 502.945313 497.402344 C 505.601563 495.628906 509.585938 490.542969 513.125 494.746094 C 514.675781 497.402344 518.433594 496.960938 520.429688 496.960938 C 523.308594 494.96875 526.625 490.09375 530.609375 494.300781 C 532.601563 496.515625 535.925781 496.960938 538.578125 495.851563 C 541.011719 492.757813 545.21875 491.644531 546.550781 487.445313 C 544.996094 485.898438 541.234375 485.898438 539.6875 487.445313 C 538.578125 489.4375 536.140625 491.867188 533.710938 490.09375 C 531.71875 485.898438 527.070313 486.777344 523.75 487.445313 C 520.652344 488.769531 519.542969 492.980469 515.78125 490.542969 C 514.230469 486.777344 508.035156 486.777344 504.488281 488.550781 C 504.273438 489.65625 502.722656 490.542969 501.835938 491.644531 C 497.191406 490.320313 493.203125 486.117188 487.675781 488.550781 C 485.460938 489.875 485.015625 492.3125 482.363281 492.09375 C 480.371094 490.320313 478.820313 488.105469 475.941406 488.550781 C 475.273438 488.992188 475.058594 490.320313 474.398438 488.992188 L 467.3125 477.265625 C 469.527344 477.484375 471.738281 472.617188 475.273438 473.5 C 477.714844 476.152344 482.136719 479.699219 485.898438 476.820313 C 487.894531 474.609375 489.886719 472.835938 492.984375 473.5 C 494.535156 476.378906 498.515625 479.253906 502.503906 477.265625 C 505.15625 475.710938 508.035156 470.84375 511.578125 474.160156 C 513.125 477.707031 518.21875 478.148438 521.097656 476.152344 C 522.199219 473.5 525.078125 472.617188 527.953125 473.058594 C 530.609375 475.488281 533.710938 478.148438 537.46875 476.152344 C 539.460938 474.386719 542.339844 470.84375 545.441406 472.617188 C 547.652344 474.386719 549.421875 477.039063 552.300781 476.820313 L 554.515625 474.160156 L 554.074219 473.5 C 556.0625 473.941406 555.84375 469.292969 558.277344 469.292969 Z M 558.277344 471.953125 "/>
<path style=" stroke:none;fill-rule:nonzero;fill:rgb(0%,0%,0%);fill-opacity:1;" d="M 550.308594 479.476563 C 550.53125 481.246094 549.203125 483.019531 547.652344 483.679688 C 546.101563 481.910156 543.890625 479.917969 541.679688 481.46875 C 539.246094 485.007813 535.476563 487 531.71875 485.230469 C 529.945313 483.460938 527.292969 480.363281 524.191406 482.132813 C 522.199219 484.785156 516.890625 489.4375 513.125 485.230469 C 511.355469 482.792969 508.035156 480.804688 505.601563 483.242188 C 504.714844 486.335938 501.613281 487.445313 498.292969 486.777344 C 494.535156 486.777344 492.761719 480.582031 488.558594 483.679688 C 487.453125 485.898438 486.125 487 483.910156 487.886719 C 478.820313 489.4375 477.273438 483.019531 472.625 483.679688 C 471.070313 482.792969 471.296875 481.246094 470.628906 479.917969 C 471.960938 477.933594 474.839844 479.253906 477.046875 478.8125 C 484.128906 491.429688 490.769531 469.292969 498.742188 482.132813 C 502.722656 483.019531 503.386719 478.371094 506.265625 477.933594 C 509.804688 475.710938 514.230469 479.03125 516.890625 481.46875 C 516.890625 482.132813 516.664063 482.792969 517.332031 483.242188 C 518.660156 481.023438 520.652344 479.03125 523.082031 477.265625 C 530.609375 471.511719 535.253906 488.992188 540.789063 476.820313 C 544.109375 475.488281 547.871094 476.597656 550.308594 479.476563 "/>
<path style=" stroke:none;fill-rule:nonzero;fill:rgb(0%,0%,0%);fill-opacity:1;" d="M 534.816406 501.828125 C 534.375 502.933594 533.929688 504.042969 532.824219 504.929688 C 524.628906 493.863281 518.660156 515.773438 510.910156 502.269531 C 506.042969 502.269531 503.832031 508.691406 498.292969 507.144531 C 496.96875 504.929688 493.648438 500.945313 490.328125 503.375 C 489.222656 504.269531 488.558594 505.371094 487.011719 504.929688 C 485.015625 502.269531 486.125 501.382813 488.113281 499.613281 C 490.550781 498.0625 494.535156 497.183594 497.191406 499.175781 C 503.164063 508.46875 506.042969 492.3125 514.230469 498.511719 C 514.894531 499.839844 516.890625 500.726563 518.433594 501.828125 C 521.980469 499.839844 525.742188 495.628906 531.050781 498.0625 Z M 534.816406 501.828125 "/>
<path style=" stroke:none;fill-rule:nonzero;fill:rgb(0%,0%,0%);fill-opacity:1;" d="M 529.5 507.582031 C 530.167969 511.789063 524.191406 512.894531 521.535156 515.550781 C 514.675781 518.875 509.804688 506.257813 504.050781 515.996094 C 496.96875 518.875 495.417969 511.789063 491.878906 508.027344 C 495.863281 506.257813 499.179688 511.125 502.503906 511.789063 C 505.601563 507.359375 510.46875 506.699219 515.117188 508.691406 C 516.664063 510.242188 518.433594 512.453125 521.097656 510.683594 C 523.082031 508.027344 526.183594 506.035156 529.5 507.582031 "/>
<path style=" stroke:none;fill-rule:nonzero;fill:rgb(0%,0%,0%);fill-opacity:1;" d="M 509.363281 520.863281 C 511.355469 520.199219 510.910156 521.085938 512.464844 519.316406 C 512.238281 518.648438 511.578125 518.648438 510.910156 518.648438 L 510.910156 517.761719 C 514.007813 517.324219 515.117188 519.316406 516.890625 520.863281 C 515.78125 522.414063 515.117188 524.183594 512.464844 523.519531 L 512.464844 523.074219 L 504.488281 522.414063 C 502.503906 518.875 506.707031 517.546875 509.363281 517.101563 Z M 509.363281 520.863281 "/>
<path style=" stroke:none;fill-rule:nonzero;fill:rgb(100%,100%,100%);fill-opacity:1;" d="M 552.96875 537.90625 C 556.503906 542.113281 553.847656 550.964844 561.371094 553.179688 C 566.023438 554.285156 568.898438 551.628906 572.660156 550.519531 C 573.546875 552.957031 572.882813 555.835938 573.105469 558.488281 C 565.359375 559.152344 557.390625 560.699219 553.40625 568.226563 C 552.523438 573.09375 548.09375 577.746094 551.417969 583.054688 C 550.75 587.921875 560.710938 593.457031 551.855469 596.335938 C 547.210938 574.644531 541.898438 554.503906 538.132813 533.035156 L 548.761719 520.863281 C 550.085938 526.613281 554.738281 531.488281 552.96875 537.90625 "/>
<path style=" stroke:none;fill-rule:nonzero;fill:rgb(100%,100%,100%);fill-opacity:1;" d="M 483.910156 541.003906 C 479.488281 559.59375 475.722656 578.628906 470.628906 596.78125 C 461.335938 591.242188 474.835938 586.375 472.621094 579.292969 C 470.851563 571.105469 469.746094 563.355469 460.453125 560.699219 L 449.828125 559.152344 C 448.71875 556.496094 449.382813 552.734375 451.378906 551.1875 C 456.46875 552.734375 460.007813 555.171875 464.65625 551.1875 C 467.976563 547.863281 467.089844 542.996094 469.527344 539.453125 C 468.640625 532.59375 473.070313 528.164063 473.730469 521.972656 C 477.492188 527.5 490.109375 531.269531 483.910156 541.003906 "/>
<path style=" stroke:none;fill-rule:nonzero;fill:rgb(100%,100%,100%);fill-opacity:1;" d="M 386.082031 547.421875 L 357.976563 552.292969 L 327.65625 588.8125 L 321.902344 585.046875 C 331.199219 567.113281 345.359375 551.1875 354.878906 533.035156 L 354.210938 527.722656 C 349.789063 526.175781 350.234375 534.144531 345.144531 533.703125 C 342.039063 533.480469 339.382813 532.152344 337.171875 529.273438 C 336.730469 527.0625 336.289063 524.183594 338.945313 523.074219 C 356.425781 526.613281 373.03125 533.917969 386.082031 547.421875 "/>
<path style=" stroke:none;fill-rule:nonzero;fill:rgb(100%,100%,100%);fill-opacity:1;" d="M 685.761719 524.628906 C 686.644531 528.609375 683.546875 530.378906 681.558594 532.59375 C 677.351563 534.363281 672.921875 532.152344 671.375 528.386719 C 671.375 527.0625 670.042969 527.28125 669.15625 526.613281 C 666.949219 529.492188 668.054688 532.816406 669.15625 535.691406 C 678.453125 552.734375 691.515625 568.007813 700.144531 585.046875 L 694.835938 588.367188 L 664.953125 552.292969 L 636.84375 547.421875 C 649.234375 534.144531 666.285156 525.511719 684.648438 523.074219 Z M 685.761719 524.628906 "/>
<path style=" stroke:none;fill-rule:nonzero;fill:rgb(100%,100%,100%);fill-opacity:1;" d="M 441.859375 527.722656 C 442.082031 528.386719 441.414063 529.492188 442.523438 529.9375 L 434.554688 527.28125 Z M 441.859375 527.722656 "/>
<path style=" stroke:none;fill-rule:nonzero;fill:rgb(100%,100%,100%);fill-opacity:1;" d="M 588.601563 527.28125 C 585.71875 527.722656 583.066406 528.832031 580.628906 529.9375 C 580.183594 525.070313 585.945313 528.167969 588.601563 527.28125 "/>
<path style=" stroke:none;fill-rule:nonzero;fill:rgb(100%,100%,100%);fill-opacity:1;" d="M 460.007813 536.800781 C 456.46875 539.453125 451.378906 533.917969 447.171875 532.59375 C 451.152344 530.824219 453.585938 535.46875 457.792969 534.582031 Z M 460.007813 536.800781 "/>
<path style=" stroke:none;fill-rule:nonzero;fill:rgb(100%,100%,100%);fill-opacity:1;" d="M 575.316406 532.59375 C 571.113281 534.144531 568.015625 538.125 562.921875 537.238281 C 564.027344 533.035156 569.34375 534.582031 571.996094 531.929688 C 573.105469 532.152344 574.433594 531.488281 575.316406 532.59375 "/>
<path style=" stroke:none;fill-rule:nonzero;fill:rgb(100%,100%,100%);fill-opacity:1;" d="M 720.285156 576.195313 C 718.515625 580.402344 714.972656 581.507813 711.207031 583.054688 L 708.558594 582.390625 C 699.480469 568.449219 689.964844 554.722656 681.558594 540.5625 C 685.761719 539.457031 689.742188 537.019531 692.617188 534.144531 Z M 720.285156 576.195313 "/>
<path style=" stroke:none;fill-rule:nonzero;fill:rgb(100%,100%,100%);fill-opacity:1;" d="M 313.933594 583.054688 C 310.390625 584.164063 306.628906 581.953125 303.753906 579.734375 C 301.539063 578.410156 301.539063 574.863281 303.753906 573.539063 L 329.203125 534.582031 L 341.597656 541.667969 Z M 313.933594 583.054688 "/>
<path style=" stroke:none;fill-rule:nonzero;fill:rgb(100%,100%,100%);fill-opacity:1;" d="M 429.6875 542.113281 C 427.917969 542.777344 427.25 539.675781 425.921875 538.347656 C 427.25 539.675781 429.910156 539.894531 429.6875 542.113281 "/>
<path style=" stroke:none;fill-rule:nonzero;fill:rgb(100%,100%,100%);fill-opacity:1;" d="M 545.441406 602.75 C 543.667969 604.746094 540.128906 602.976563 538.132813 604.304688 C 533.261719 584.164063 530.167969 562.914063 528.394531 542.113281 L 531.050781 539.894531 C 535.925781 560.925781 540.789063 581.726563 545.441406 602.75 "/>
<path style=" stroke:none;fill-rule:nonzero;fill:rgb(100%,100%,100%);fill-opacity:1;" d="M 494.976563 543.660156 C 492.984375 564.464844 488.113281 583.941406 485.460938 604.304688 L 477.492188 603.636719 C 481.917969 582.390625 487.230469 561.585938 491.878906 540.5625 Z M 494.976563 543.660156 "/>
<path style=" stroke:none;fill-rule:nonzero;fill:rgb(100%,100%,100%);fill-opacity:1;" d="M 591.253906 558.046875 C 591.472656 560.699219 589.042969 562.03125 586.824219 562.914063 C 579.082031 562.476563 581.515625 553.839844 579.960938 548.527344 C 581.074219 546.753906 581.957031 545.871094 583.726563 544.769531 C 587.710938 547.640625 588.601563 553.617188 591.253906 558.046875 "/>
<path style=" stroke:none;fill-rule:nonzero;fill:rgb(100%,100%,100%);fill-opacity:1;" d="M 442.964844 550.078125 C 440.308594 554.066406 444.738281 562.253906 437.214844 562.914063 C 434.332031 563.578125 432.339844 561.585938 431.234375 559.59375 C 432.339844 554.285156 436.105469 550.300781 437.65625 545.210938 C 440.972656 544.984375 442.082031 547.640625 442.964844 550.078125 "/>
<path style=" stroke:none;fill-rule:nonzero;fill:rgb(100%,100%,100%);fill-opacity:1;" d="M 529.5 604.746094 C 528.617188 605.851563 527.070313 605.1875 525.742188 605.40625 L 519.542969 551.1875 C 520.207031 550.742188 520.429688 549.636719 521.097656 549.636719 Z M 529.5 604.746094 "/>
<path style=" stroke:none;fill-rule:nonzero;fill:rgb(100%,100%,100%);fill-opacity:1;" d="M 503.609375 552.292969 L 497.632813 605.40625 L 493.425781 605.40625 L 501.398438 550.078125 C 502.722656 549.636719 502.945313 551.40625 503.609375 552.292969 "/>
<path style=" stroke:none;fill-rule:nonzero;fill:rgb(100%,100%,100%);fill-opacity:1;" d="M 382.324219 567.5625 C 377.671875 565.128906 372.363281 562.03125 369.039063 558.046875 C 375.242188 556.9375 381.660156 556.71875 387.640625 555.386719 Z M 382.324219 567.5625 "/>
<path style=" stroke:none;fill-rule:nonzero;fill:rgb(100%,100%,100%);fill-opacity:1;" d="M 653.886719 558.046875 C 649.464844 561.367188 645.257813 564.6875 639.945313 567.113281 L 634.636719 555.390625 Z M 653.886719 558.046875 "/>
<path style=" stroke:none;fill-rule:nonzero;fill:rgb(100%,100%,100%);fill-opacity:1;" d="M 518.433594 605.40625 L 504.488281 605.40625 L 509.804688 556.9375 C 510.910156 556.9375 512.238281 557.160156 513.125 556.496094 Z M 518.433594 605.40625 "/>
<path style=" stroke:none;fill-rule:nonzero;fill:rgb(100%,100%,100%);fill-opacity:1;" d="M 619.804688 567.113281 C 614.273438 570.882813 605.859375 569.113281 600.105469 566.460938 C 600.769531 563.804688 604.3125 564.019531 606.523438 563.355469 C 611.617188 563.355469 617.589844 562.917969 619.804688 567.113281 "/>
<path style=" stroke:none;fill-rule:nonzero;fill:rgb(100%,100%,100%);fill-opacity:1;" d="M 422.828125 566.011719 C 417.734375 568.890625 408.660156 570.664063 403.128906 567.5625 C 402.464844 564.464844 406.003906 565.128906 407.328125 563.804688 C 412.648438 564.242188 418.84375 562.691406 422.828125 566.011719 "/>
<path style=" stroke:none;fill-rule:nonzero;fill:rgb(100%,100%,100%);fill-opacity:1;" d="M 390.953125 586.152344 C 392.503906 589.035156 394.71875 585.265625 396.707031 587.261719 C 404.011719 593.902344 419.285156 592.574219 419.5 604.746094 C 421.058594 605.1875 422.382813 607.398438 423.929688 605.851563 C 425.265625 603.859375 427.25 603.636719 428.582031 601.644531 C 441.636719 604.96875 453.804688 609.835938 467.308594 611.601563 C 463.550781 612.714844 458.234375 611.382813 455.800781 614.925781 C 458.898438 617.582031 465.320313 616.476563 469.523438 616.03125 L 472.625 612.714844 C 512.683594 618.683594 557.835938 614.925781 594.351563 601.644531 L 600.105469 606.292969 C 603.871094 604.746094 604.753906 600.984375 604.972656 597.441406 L 627.769531 586.820313 C 630.648438 589.253906 632.421875 584.828125 633.082031 583.496094 L 661.855469 564.464844 L 664.511719 565.574219 L 699.035156 608.949219 L 698.375 610.722656 C 654.550781 644.140625 604.753906 665.390625 549.203125 671.804688 C 552.300781 670.257813 556.503906 668.484375 557.613281 664.722656 C 558.054688 664.058594 558.496094 663.175781 558.277344 662.070313 C 553.40625 660.296875 548.980469 665.167969 543.890625 665.832031 C 542.121094 667.820313 540.570313 669.816406 541.234375 672.691406 C 491.65625 677.5625 442.742188 671.140625 400.472656 653.65625 C 404.679688 653.214844 413.308594 657.644531 416.851563 650.5625 C 413.085938 647.460938 406.890625 647.679688 401.578125 646.796875 C 399.808594 647.902344 396.929688 649.675781 397.371094 652.105469 L 398.257813 653.214844 C 371.476563 642.8125 346.027344 628.203125 323.007813 610.058594 L 359.527344 564.464844 C 369.925781 571.769531 382.101563 578.183594 390.953125 586.152344 "/>
<path style=" stroke:none;fill-rule:nonzero;fill:rgb(100%,100%,100%);fill-opacity:1;" d="M 389.847656 572.433594 C 388.296875 569.550781 392.503906 567.785156 392.503906 564.90625 C 391.398438 567.339844 392.503906 571.101563 389.847656 572.433594 "/>
<path style=" stroke:none;fill-rule:nonzero;fill:rgb(100%,100%,100%);fill-opacity:1;" d="M 459.34375 570.882813 C 456.023438 574.863281 448.941406 572.433594 444.515625 570.882813 C 444.515625 568.007813 447.617188 568.667969 448.71875 567.113281 C 452.703125 567.5625 456.46875 568.007813 459.34375 570.882813 "/>
<path style=" stroke:none;fill-rule:nonzero;fill:rgb(100%,100%,100%);fill-opacity:1;" d="M 577.972656 569.113281 C 576.425781 573.542969 569.785156 572.210938 565.132813 572.433594 C 564.46875 571.769531 562.921875 571.769531 563.589844 570.21875 C 566.90625 566.675781 573.988281 565.574219 577.972656 569.113281 "/>
<path style=" stroke:none;fill-rule:nonzero;fill:rgb(100%,100%,100%);fill-opacity:1;" d="M 633.082031 571.769531 C 631.316406 571.546875 630.648438 569.113281 631.09375 567.117188 C 631.316406 568.449219 633.527344 569.777344 633.082031 571.769531 "/>
<path style=" stroke:none;fill-rule:nonzero;fill:rgb(100%,100%,100%);fill-opacity:1;" d="M 597.453125 580.839844 C 598.777344 583.496094 595.683594 583.941406 594.351563 584.605469 C 589.925781 583.941406 590.148438 577.523438 587.933594 573.980469 C 592.582031 571.988281 596.121094 576.414063 597.453125 580.839844 "/>
<path style=" stroke:none;fill-rule:nonzero;fill:rgb(100%,100%,100%);fill-opacity:1;" d="M 433.890625 573.539063 C 433.671875 577.082031 432.5625 582.167969 430.125 585.046875 C 428.355469 584.386719 426.144531 584.605469 424.816406 582.394531 C 426.144531 578.1875 427.917969 572.433594 433.890625 573.539063 "/>
<path style=" stroke:none;fill-rule:nonzero;fill:rgb(0%,0%,0%);fill-opacity:1;" d="M 672.921875 608.0625 C 674.25 615.371094 673.585938 623.117188 668.714844 628.648438 C 662.519531 633.734375 654.332031 635.515625 647.027344 635.515625 C 655.875 630.640625 670.492188 623.339844 669.824219 610.722656 C 670.042969 602.089844 666.0625 595.230469 660.746094 588.808594 C 661.191406 594.785156 664.292969 601.867188 662.960938 608.507813 C 660.082031 606.074219 661.640625 600.761719 659.640625 597.441406 C 657.210938 589.472656 650.792969 582.613281 651.675781 573.980469 C 663.847656 579.957031 671.59375 594.34375 672.921875 608.0625 "/>
<path style=" stroke:none;fill-rule:nonzero;fill:rgb(100%,100%,100%);fill-opacity:1;" d="M 619.804688 579.292969 L 607.183594 585.714844 C 605.640625 583.71875 604.535156 580.402344 604.972656 577.082031 C 609.84375 577.523438 613.832031 577.300781 618.699219 576.636719 Z M 619.804688 579.292969 "/>
<path style=" stroke:none;fill-rule:nonzero;fill:rgb(100%,100%,100%);fill-opacity:1;" d="M 416.40625 585.714844 L 402.6875 579.734375 C 405.558594 574.203125 412.863281 579.734375 417.957031 577.082031 Z M 416.40625 585.714844 "/>
<path style=" stroke:none;fill-rule:nonzero;fill:rgb(100%,100%,100%);fill-opacity:1;" d="M 575.761719 580.839844 C 571.554688 587.703125 566.6875 595.894531 560.269531 600.539063 C 565.132813 593.234375 570.003906 586.597656 575.761719 580.839844 "/>
<path style=" stroke:none;fill-rule:nonzero;fill:rgb(100%,100%,100%);fill-opacity:1;" d="M 448.277344 581.507813 C 452.925781 589.476563 458.015625 593.015625 462.664063 600.984375 L 460.449219 600.539063 L 446.726563 581.507813 Z M 448.277344 581.507813 "/>
<path style=" stroke:none;fill-rule:nonzero;fill:rgb(0%,0%,0%);fill-opacity:1;" d="M 379.664063 583.496094 C 380.996094 586.375 377.671875 586.375 376.570313 587.703125 L 365.945313 587.703125 C 365.726563 580.179688 374.578125 583.71875 379.664063 583.496094 "/>
<path style=" stroke:none;fill-rule:nonzero;fill:rgb(0%,0%,0%);fill-opacity:1;" d="M 649.019531 590.359375 C 646.363281 592.347656 649.464844 593.902344 650.570313 594.785156 L 651.230469 600.09375 C 652.78125 600.316406 657.875 597.660156 658.089844 601.644531 C 657.652344 612.050781 649.464844 617.136719 642.15625 622.890625 L 646.363281 623.339844 C 648.796875 632.191406 636.402344 633.960938 634.636719 641.484375 C 632.421875 643.253906 629.101563 644.140625 626.222656 643.035156 C 622.460938 640.820313 622.683594 635.953125 622.019531 631.964844 C 607.183594 633.960938 616.265625 654.984375 601.875 656.757813 C 598.335938 657.863281 594.796875 656.316406 592.136719 653.65625 C 592.359375 652.992188 591.472656 652.550781 591.253906 652.105469 C 584.167969 660.296875 572.660156 662.953125 562.039063 660.082031 L 562.039063 658.972656 C 572.21875 658.308594 582.84375 655.429688 588.601563 645.691406 C 591.695313 637.722656 589.925781 626.214844 598.117188 621.789063 C 600.992188 622.890625 599.21875 625.996094 599.664063 628.203125 C 593.464844 632.414063 593.464844 641.929688 594.796875 647.902344 C 596.339844 650.5625 600.105469 649.230469 602.320313 648.789063 C 606.523438 646.796875 608.296875 643.480469 609.84375 639.273438 C 607.410156 639.273438 606.523438 638.828125 604.535156 637.285156 C 602.765625 635.066406 603.207031 631.304688 603.871094 628.648438 C 604.753906 626.433594 607.632813 626.875 609.179688 627.539063 C 610.730469 628.425781 612.941406 631.304688 614.492188 628.648438 C 616.039063 627.984375 614.050781 626.875 614.050781 626.65625 C 614.273438 622.230469 615.152344 617.359375 618.699219 615.371094 C 621.351563 615.371094 622.234375 617.359375 623.566406 619.132813 L 623.566406 621.789063 C 628.214844 620.902344 627.550781 614.042969 626.664063 610.058594 C 625.785156 606.292969 623.125 601.644531 618.699219 600.539063 C 614.273438 604.746094 618.699219 610.5 615.152344 614.925781 C 610.285156 610.722656 615.152344 603.199219 615.152344 597.441406 C 615.597656 593.679688 618.917969 592.128906 622.019531 593.015625 C 627.769531 596.117188 630.871094 603.859375 631.09375 610.058594 C 631.753906 616.917969 628.878906 623.558594 625.117188 629.3125 C 624.449219 632.414063 626.222656 635.066406 628.433594 636.171875 C 632.421875 636.839844 634.851563 633.296875 636.402344 630.863281 C 634.636719 620.015625 645.476563 614.257813 652.78125 608.0625 C 648.578125 607.398438 642.597656 617.359375 639.945313 611.167969 C 639.726563 605.40625 650.570313 604.746094 645.917969 597.882813 L 643.707031 602.089844 C 642.378906 597 641.714844 590.578125 644.375 585.046875 C 647.46875 584.828125 646.804688 589.035156 649.019531 590.359375 "/>
<path style=" stroke:none;fill-rule:nonzero;fill:rgb(100%,100%,100%);fill-opacity:1;" d="M 585.945313 593.679688 L 575.316406 596.78125 C 575.761719 593.679688 580.183594 590.140625 582.621094 586.820313 C 582.84375 588.808594 586.382813 590.578125 585.945313 593.679688 "/>
<path style=" stroke:none;fill-rule:nonzero;fill:rgb(100%,100%,100%);fill-opacity:1;" d="M 447.835938 596.78125 L 437.214844 594.117188 C 436.328125 591.910156 439.207031 589.695313 439.207031 587.261719 C 442.300781 589.035156 445.402344 593.457031 447.835938 596.78125 "/>
<path style=" stroke:none;fill-rule:nonzero;fill:rgb(0%,0%,0%);fill-opacity:1;" d="M 416.40625 602.75 C 407.996094 602.75 396.929688 602.75 388.296875 600.539063 C 395.820313 595.671875 405.78125 599.652344 414.855469 599.433594 C 415.960938 600.761719 416.851563 600.761719 416.40625 602.75 "/>
<path style=" stroke:none;fill-rule:nonzero;fill:rgb(0%,0%,0%);fill-opacity:1;" d="M 348.902344 613.820313 C 357.3125 610.941406 361.074219 596.554688 371.699219 600.09375 C 370.148438 605.628906 365.945313 611.601563 369.039063 618.023438 C 384.980469 636.398438 410.875 641.484375 435 635.515625 C 436.769531 636.613281 436.105469 639.050781 435.441406 640.378906 C 438.320313 641.929688 440.085938 638.167969 442.964844 638.824219 L 441.859375 642.59375 C 446.949219 643.253906 446.507813 635.730469 450.492188 634.625 C 453.363281 632.191406 457.570313 629.535156 462 631.304688 C 464.429688 633.296875 464.65625 637.503906 468.417969 635.066406 C 470.410156 633.296875 470.851563 630.863281 470.628906 628.203125 C 469.527344 626.65625 469.082031 628.871094 467.976563 628.648438 C 466.867188 623.558594 471.292969 619.574219 474.398438 615.371094 L 476.386719 616.03125 C 477.933594 624.21875 477.046875 633.070313 470.628906 638.167969 C 467.3125 641.484375 463.328125 642.148438 459.34375 641.484375 C 459.34375 638.167969 455.363281 635.953125 452.480469 637.722656 C 451.152344 640.820313 459.34375 637.945313 456.242188 642.59375 C 449.824219 647.238281 440.085938 651 431.902344 647.902344 C 430.351563 646.574219 429.242188 645.027344 429.6875 643.035156 L 430.125 642.59375 L 428.578125 641.484375 C 406.445313 647.460938 382.101563 641.484375 365.945313 625.996094 C 363.511719 622.453125 361.738281 616.695313 363.289063 611.601563 C 363.953125 609.390625 366.390625 607.179688 365.503906 604.746094 C 357.3125 607.84375 354.4375 616.476563 346.910156 620.679688 C 341.820313 620.679688 343.152344 614.257813 343.59375 611.167969 C 346.027344 604.746094 351.117188 602.3125 355.765625 598.324219 C 353.773438 603.199219 344.695313 607.179688 348.902344 613.820313 "/>
<path style=" stroke:none;fill-rule:nonzero;fill:rgb(0%,0%,0%);fill-opacity:1;" d="M 387.640625 608.507813 C 385.859375 608.507813 386.527344 610.722656 385.640625 611.605469 C 387.414063 613.15625 384.757813 614.257813 384.09375 615.371094 L 381.878906 615.371094 C 379.222656 611.382813 383.875 608.289063 386.75 606.957031 L 387.640625 606.957031 Z M 387.640625 608.507813 "/>
<path style=" stroke:none;fill-rule:nonzero;fill:rgb(0%,0%,0%);fill-opacity:1;" d="M 414.195313 613.378906 C 415.523438 613.820313 416.40625 611.824219 417.511719 613.378906 C 416.851563 615.59375 415.300781 616.695313 413.308594 618.023438 C 410.210938 616.917969 404.453125 618.6875 404.230469 614.261719 C 403.570313 612.269531 406.003906 610.941406 407.328125 610.058594 C 407.996094 615.371094 412.863281 609.390625 414.195313 613.378906 "/>
<path style=" stroke:none;fill-rule:nonzero;fill:rgb(0%,0%,0%);fill-opacity:1;" d="M 559.828125 613.820313 C 549.421875 620.902344 537.46875 626.214844 526.40625 632.410156 L 525.296875 631.304688 C 533.488281 620.902344 545.878906 618.023438 556.726563 612.269531 L 559.828125 612.269531 Z M 559.828125 613.820313 "/>
<path style=" stroke:none;fill-rule:nonzero;fill:rgb(0%,0%,0%);fill-opacity:1;" d="M 582.175781 617.582031 C 584.835938 630.421875 578.636719 641.261719 570.890625 649.894531 C 556.949219 660.082031 538.578125 666.054688 521.097656 661.183594 C 514.453125 658.527344 513.789063 651.441406 510.910156 646.132813 C 506.042969 651.886719 509.804688 662.289063 505.15625 668.484375 C 501.398438 670.703125 499.179688 667.15625 497.632813 664.28125 C 496.082031 656.757813 498.074219 649.230469 499.84375 642.59375 C 500.289063 642.59375 500.511719 642.148438 500.953125 641.929688 C 502.722656 648.34375 496.746094 655.429688 501.835938 661.183594 C 507.375 655.875 504.050781 645.910156 508.917969 639.9375 C 510.03125 638.386719 511.796875 636.839844 513.566406 638.167969 C 516.449219 643.480469 515.339844 651 522.199219 653.65625 C 540.128906 657.421875 559.605469 653.21875 571.996094 640.820313 C 575.761719 636.398438 579.742188 631.527344 577.972656 625.550781 L 576.867188 626.65625 C 577.308594 627.984375 576.425781 629.976563 575.316406 631.304688 L 574.65625 631.304688 C 574.214844 625.105469 575.316406 617.808594 577.972656 612.714844 C 581.296875 612.269531 580.628906 616.03125 582.175781 617.582031 "/>
<path style=" stroke:none;fill-rule:nonzero;fill:rgb(0%,0%,0%);fill-opacity:1;" d="M 455.800781 618.023438 C 455.578125 620.679688 452.703125 621.121094 450.933594 622.230469 C 448.277344 621.347656 446.28125 619.351563 445.621094 616.917969 C 447.390625 612.492188 454.035156 614.257813 455.800781 618.023438 "/>
<path style=" stroke:none;fill-rule:nonzero;fill:rgb(0%,0%,0%);fill-opacity:1;" d="M 486.566406 615.371094 C 493.871094 630.640625 487.453125 648.125 479.703125 661.183594 C 476.386719 665.390625 471.296875 668.046875 466.425781 669.152344 C 458.902344 668.484375 452.039063 664.722656 447.171875 660.082031 C 455.800781 662.289063 469.300781 665.390625 477.046875 657.421875 C 484.796875 650.5625 486.34375 639.710938 483.910156 629.757813 C 480.371094 635.289063 482.582031 643.917969 475.941406 647.238281 C 481.035156 637.503906 477.933594 624.441406 485.015625 615.371094 Z M 486.566406 615.371094 "/>
<path style=" stroke:none;fill-rule:nonzero;fill:rgb(0%,0%,0%);fill-opacity:1;" d="M 659.640625 619.574219 C 659.640625 622.007813 658.089844 624.003906 655.875 624.886719 C 654.332031 624.003906 651.675781 624.21875 651.230469 621.789063 C 651.230469 616.695313 656.988281 616.257813 659.640625 619.574219 "/>
<path style=" stroke:none;fill-rule:nonzero;fill:rgb(0%,0%,0%);fill-opacity:1;" d="M 512.015625 618.683594 C 512.238281 624.882813 506.265625 627.320313 501.835938 630.199219 C 500.953125 630.640625 500.511719 629.757813 499.847656 629.3125 C 499.179688 622.453125 507.148438 622.453125 510.46875 618.023438 Z M 512.015625 618.683594 "/>
<path style=" stroke:none;fill-rule:nonzero;fill:rgb(0%,0%,0%);fill-opacity:1;" d="M 559.382813 623.339844 C 560.933594 629.3125 554.960938 631.742188 550.75 632.855469 C 546.765625 633.070313 547.433594 627.984375 548.09375 625.550781 C 549.644531 623.5625 550.53125 625.550781 551.855469 626.65625 C 552.746094 621.566406 557.613281 626.65625 558.277344 621.789063 Z M 559.382813 623.339844 "/>
<path style=" stroke:none;fill-rule:nonzero;fill:rgb(0%,0%,0%);fill-opacity:1;" d="M 467.3125 647.902344 C 468.640625 650.113281 465.542969 652.332031 464.210938 653.65625 C 460.453125 654.984375 456.46875 655.429688 452.039063 655.207031 C 449.828125 652.332031 453.363281 651 454.699219 649.453125 C 458.679688 648.125 463.773438 649.894531 467.3125 647.902344 "/>
<path style=" stroke:none;fill-rule:nonzero;fill:rgb(100%,100%,100%);fill-opacity:1;" d="M 526.40625 683.980469 C 539.460938 700.796875 551.417969 716.511719 563.589844 733.78125 L 562.039063 733.78125 L 523.75 683.3125 Z M 526.40625 683.980469 "/>
<path style=" stroke:none;fill-rule:nonzero;fill:rgb(100%,100%,100%);fill-opacity:1;" d="M 460.453125 733.777344 L 458.898438 733.777344 L 496.082031 683.980469 L 498.292969 683.980469 Z M 460.453125 733.777344 "/>
<path style=" stroke:none;fill-rule:nonzero;fill:rgb(100%,100%,100%);fill-opacity:1;" d="M 547.652344 457.121094 C 551.417969 457.789063 556.285156 458.449219 558.71875 454.464844 C 558.054688 452.476563 559.828125 451.367188 560.933594 450.257813 C 563.808594 450.703125 564.027344 455.351563 564.695313 458.230469 L 562.921875 461.992188 C 544.996094 463.320313 524.855469 461.332031 508.257813 463.539063 L 506.707031 462.433594 L 461.558594 461.992188 C 460.449219 460.660156 459.566406 460.660156 460.007813 458.671875 C 466.648438 458.230469 463.328125 447.386719 471.738281 450.703125 C 472.402344 454.019531 473.949219 457.339844 477.492188 458.230469 C 482.363281 458.890625 487.011719 457.5625 488.558594 452.917969 C 488.339844 451.148438 490.328125 450.480469 491.878906 450.703125 C 497.191406 450.480469 495.640625 459.113281 501.835938 458.230469 C 512.464844 461.992188 507.148438 444.285156 517.773438 451.367188 C 517.773438 454.019531 519.765625 456.457031 522.199219 457.5625 C 526.40625 456.902344 532.160156 459.335938 534.816406 454.910156 C 535.035156 452.699219 536.140625 449.375 539.019531 449.59375 C 545.21875 448.714844 543.449219 454.910156 547.652344 457.121094 "/>
<path style=" stroke:none;fill-rule:nonzero;fill:rgb(0%,0%,0%);fill-opacity:1;" d="M 549.644531 446.9375 C 555.625 443.179688 557.390625 436.757813 557.167969 430.121094 C 566.464844 422.371094 571.554688 411.96875 575.316406 401.347656 C 570.890625 399.578125 566.242188 404.886719 561.371094 402.898438 C 558.496094 404 555.84375 405.113281 552.96875 406.21875 L 556.726563 384.308594 C 552.082031 380.542969 546.765625 386.523438 541.679688 387.625 C 533.929688 393.378906 526.625 401.128906 523.75 410.417969 C 519.097656 411.082031 517.332031 405.113281 513.566406 401.792969 C 506.042969 392.496094 492.097656 396.921875 485.015625 387.625 C 480.59375 391.167969 484.128906 395.816406 483.910156 400.90625 C 477.046875 400.90625 470.191406 396.921875 463.773438 396.035156 C 461.113281 400.023438 465.097656 404 465.320313 408.207031 C 467.3125 411.96875 469.746094 415.511719 471.070313 419.496094 C 466.203125 422.816406 460.894531 417.503906 456.242188 419.941406 C 459.785156 433.4375 471.515625 440.863281 482.804688 446.835938 Z M 549.644531 446.9375 "/>
<path style=" stroke:none;fill-rule:nonzero;fill:rgb(100%,100%,100%);fill-opacity:1;" d="M 532.945313 406.78125 C 534.71875 404.34375 536.261719 400.363281 539.140625 398.371094 C 538.476563 402.132813 534.71875 403.464844 532.945313 406.78125 "/>
<path style=" stroke:none;fill-rule:nonzero;fill:rgb(100%,100%,100%);fill-opacity:1;" d="M 513.246094 410.988281 C 509.925781 412.535156 507.269531 408.773438 504.613281 407.886719 L 503.730469 405.675781 C 507.496094 407 510.152344 408.773438 513.246094 410.988281 "/>
<path style=" stroke:none;fill-rule:nonzero;fill:rgb(100%,100%,100%);fill-opacity:1;" d="M 538.253906 414.75 C 539.140625 411.652344 542.457031 409.214844 544.011719 407.222656 C 543.121094 410.324219 540.910156 412.976563 538.253906 414.75 "/>
<path style=" stroke:none;fill-rule:nonzero;fill:rgb(100%,100%,100%);fill-opacity:1;" d="M 504.613281 417.402344 C 501.292969 415.191406 497.53125 412.535156 495.097656 408.996094 C 497.976563 411.652344 504.171875 414.085938 504.613281 417.402344 "/>
<path style=" stroke:none;fill-rule:nonzero;fill:rgb(100%,100%,100%);fill-opacity:1;" d="M 486.6875 421.605469 C 480.710938 419.617188 477.390625 415.632813 473.402344 410.988281 C 476.730469 415.855469 482.699219 417.847656 486.6875 421.605469 "/>
<path style=" stroke:none;fill-rule:nonzero;fill:rgb(100%,100%,100%);fill-opacity:1;" d="M 550.871094 424.925781 C 551.539063 421.386719 556.847656 422.492188 557.289063 418.949219 C 559.28125 418.070313 561.492188 415.191406 562.15625 412.535156 L 561.492188 412.089844 L 563.707031 410.988281 C 558.839844 415.410156 559.058594 425.8125 550.871094 424.925781 "/>
<path style=" stroke:none;fill-rule:nonzero;fill:rgb(100%,100%,100%);fill-opacity:1;" d="M 493.101563 417.847656 C 490.453125 416.519531 487.351563 414.527344 486.019531 412.089844 C 488.460938 414.085938 492.222656 414.304688 493.101563 417.847656 "/>
<path style=" stroke:none;fill-rule:nonzero;fill:rgb(100%,100%,100%);fill-opacity:1;" d="M 548.878906 417.847656 C 549.761719 423.378906 543.566406 420.5 541.355469 422.714844 C 536.484375 425.375 532.945313 431.347656 528.078125 433.78125 C 527.191406 430.238281 531.617188 432.234375 532.28125 430.238281 C 536.042969 423.824219 542.457031 419.835938 548.878906 417.847656 "/>
<path style=" stroke:none;fill-rule:nonzero;fill:rgb(100%,100%,100%);fill-opacity:1;" d="M 522.765625 425.8125 C 520.109375 427.585938 518.335938 424.042969 515.898438 423.824219 C 518.777344 424.042969 522.542969 424.269531 524.3125 420.0625 C 525.199219 421.832031 523.871094 424.269531 522.765625 425.8125 "/>
<path style=" stroke:none;fill-rule:nonzero;fill:rgb(100%,100%,100%);fill-opacity:1;" d="M 481.820313 436.433594 C 476.730469 437.101563 470.746094 432.011719 467.433594 427.582031 C 470.972656 432.453125 477.835938 433.339844 481.820313 436.433594 "/>
<path style=" stroke:none;fill-rule:nonzero;fill:rgb(100%,100%,100%);fill-opacity:1;" d="M 488.234375 430.238281 C 486.464844 432.675781 483.148438 430.019531 482.921875 428.46875 Z M 488.234375 430.238281 "/>
<path style=" stroke:none;fill-rule:nonzero;fill:rgb(100%,100%,100%);fill-opacity:1;" d="M 551.539063 434.445313 C 552.640625 436.660156 550.652344 439.757813 548.214844 440.863281 C 545.558594 441.527344 543.566406 439.757813 542.457031 438.210938 C 541.796875 437.765625 541.796875 437.101563 541.796875 436.433594 C 545.339844 437.988281 548.878906 436.660156 551.539063 434.445313 "/>
<path style=" stroke:none;fill-rule:nonzero;fill:rgb(100%,100%,100%);fill-opacity:1;" d="M 521.65625 435.554688 C 520.109375 437.546875 520.992188 442.191406 517.007813 441.75 C 515.015625 441.308594 514.351563 440.640625 512.582031 439.757813 C 515.898438 439.976563 519.441406 437.761719 521.65625 435.554688 "/>
<path style=" stroke:none;fill-rule:nonzero;fill:rgb(100%,100%,100%);fill-opacity:1;" d="M 505.71875 440.199219 C 504.171875 441.308594 501.074219 440.863281 501.074219 438.652344 L 505.71875 437.101563 Z M 505.71875 440.199219 "/>
</g>
</svg>
